<?xml version="1.0" encoding="utf-8"?>
<!-- Generator: Adobe Illustrator 19.0.0, SVG Export Plug-In . SVG Version: 6.00 Build 0)  -->
<svg version="1.1" id="Layer_1" xmlns="http://www.w3.org/2000/svg" xmlns:xlink="http://www.w3.org/1999/xlink" x="0px" y="0px"
	 width="600px" height="600px" viewBox="0 0 600 600" enable-background="new 0 0 600 600" xml:space="preserve">
<path id="color_x5F_2" fill="#0AB0AE" d="M234.006,182.147c-2.071-5.421,0.386-11.521,5.635-13.993l0.461-0.217
	c5.249-2.472,11.515-0.479,14.372,4.571l14.401,25.452c4-1.212,8.098-2.229,12.312-2.985c8.464-1.517,16.867-1.968,25.092-1.504
	l19.555-49.939c2.115-5.403,8.038-8.262,13.584-6.557l0.485,0.148c5.547,1.705,8.842,7.397,7.557,13.055l-11.212,49.366
	c11.429,4.086,22.054,10.07,31.44,17.646c0,0,10.081-7.831,17.681-14.114c4.931-4.076,12.151-3.687,16.648,0.946l0.214,0.219
	c4.477,4.613,4.718,11.871,0.559,16.772l-14.937,17.599c6.124,8.624,11.026,18.251,14.431,28.676l32.02-1.846
	c5.912-0.341,11.147,3.789,12.193,9.619c1.069,5.966-2.593,11.76-8.44,13.355l-30.496,8.319c0.626,16.044-2.37,31.595-8.345,45.752
	l27.61,23.009c4.993,3.976,5.851,11.342,1.638,16.391c-2.548,3.053-6.489,4.293-10.32,3.813l-174.298-177.8L234.006,182.147z
	 M343.948,405.83L177.8,236.343l-14.033-5.146c-5.55-2.034-11.737,0.472-14.306,5.796c-2.614,5.418-0.608,11.935,4.6,14.945
	l41.503,23.979c-3.328,13.958-3.92,28.809-1.226,43.837c0.387,2.16,0.855,4.284,1.363,6.389l-40.329,16.352
	c-5.377,2.18-8.164,8.136-6.393,13.662l0.155,0.484c1.771,5.525,7.503,8.751,13.145,7.398l44.156-10.587
	c8.735,15.545,21.128,28.498,35.838,37.904l-17.502,35.549c-2.555,5.188-0.695,11.469,4.273,14.429l0.516,0.308
	c4.968,2.962,11.378,1.607,14.723-3.111l24.716-34.863c13.893,4.22,28.819,5.686,44.031,3.837l17.388,44.349
	c2.259,5.765,8.674,8.71,14.519,6.667c5.479-1.916,8.675-7.609,7.459-13.283L343.948,405.83z M163.455,29.69l11.448,48.303
	L163.481,85.8l-20.046-15.484l7.203,24.263l-11.476,7.844L98.367,74.179l12.296-8.404l23.751,18.324l-9.324-28.187l11.641-7.956
	l22.876,18.922l-8.449-28.783L163.455,29.69z M222.581,46.49l3.766,10.043l-32.422,12.157l-16.272-43.395l31.369-11.762
	l3.765,10.043l-19.527,7.322l2.487,6.633l17.605-6.601l3.766,10.043l-17.607,6.602l2.488,6.633L222.581,46.49z M282.206,47.238
	l-14.402-19.274l1.669,20.32l-12.6,1.035l-3.793-46.182l12.6-1.035l1.582,19.264l9.304-20.158L291.277,0l-11.489,23.46l17.13,22.57
	L282.206,47.238z M316.907,1.062l-2.028,46.289l-12.63-0.553l2.028-46.29L316.907,1.062z M359.03,40.032l4.544,9.836
	c-5.196,2.692-10.6,3.934-16.462,2.873c-14.786-2.676-24.002-15.308-21.621-28.465c2.381-13.157,15.453-21.823,30.237-19.148
	c5.863,1.061,10.488,4.118,14.399,8.526l-7.69,7.554c-2.423-2.591-5.349-4.264-8.736-4.877c-7.816-1.415-14.745,3.049-16.03,10.148
	c-1.273,7.035,3.641,13.709,11.457,15.123C352.514,42.216,355.864,41.544,359.03,40.032z M391.539,65.158l-4.636-23.611
	l-7.295,19.039l-11.806-4.524l16.581-43.271l11.806,4.524l-6.916,18.05l17.116-14.142l13.785,5.282l-20.517,16.171l5.667,27.763
	L391.539,65.158z M444.252,80.832l-5.449,9.237l-29.819-17.593l23.546-39.911l28.851,17.022l-5.449,9.237L437.97,48.226
	l-3.599,6.101l16.193,9.553l-5.45,9.237l-16.193-9.554l-3.599,6.1L444.252,80.832z M493.358,105.505
	c-8.19,9.372-21.629,11.871-34.64,0.499l-13.759-12.025l30.499-34.895l13.759,12.025C502.277,82.524,501.549,96.133,493.358,105.505
	z M484.484,97.75c4.532-5.185,5.001-12.16-2.975-19.131l-3.588-3.137l-16.382,18.744l3.59,3.137
	C473.104,104.333,479.997,102.885,484.484,97.75z M29.848,401.495l-7.826,10.384c-5.793-3.968-10.173-8.979-12.377-15.781
	c-5.557-17.154,2.575-34.068,17.839-39.013c15.266-4.946,31.846,3.962,37.405,21.116c2.202,6.802,1.594,13.428-0.848,20.065
	l-12.353-3.848c1.364-4.033,1.475-8.076,0.201-12.007c-2.937-9.068-11.588-13.864-19.826-11.195
	c-8.161,2.644-12.433,11.626-9.495,20.695C23.841,395.842,26.453,399.004,29.848,401.495z M74.411,460.679
	c-13.857,8.091-32.009,2.682-40.1-11.176c-8.091-13.858-3.918-32.392,9.941-40.483c13.859-8.091,32.118-2.653,40.209,11.205
	C92.551,434.083,88.27,452.588,74.411,460.679z M67.042,448.056c7.271-4.246,9.727-13.59,5.482-20.862
	c-4.246-7.273-13.591-9.728-20.862-5.482c-7.273,4.246-9.659,13.55-5.414,20.822C50.494,449.806,59.77,452.302,67.042,448.056z
	 M138.522,488.508L83.51,511.36l-11.445-12.027l25.552-53.812l11.774,12.372l-16.899,33.406l34.258-15.164L138.522,488.508z
	 M154.725,498.879l-33.487,44.386l-12.11-9.137l33.485-44.386L154.725,498.879z M196.002,553.937
	c-6.803,13.297-21.717,20.123-40.178,10.68l-19.522-9.986l25.328-49.51l19.522,9.986
	C199.682,524.587,202.803,540.64,196.002,553.937z M183.412,547.497c3.764-7.356,2.276-15.612-9.041-21.402l-5.093-2.606
	l-13.604,26.594l5.091,2.605C172.082,558.478,179.685,554.781,183.412,547.497z M238.583,571.866l-31.93-8.826l3.006-10.872
	l31.928,8.825L238.583,571.866z M279.802,543.846l-6.827,55.192l-15.138-1.873l4.984-40.29l-11.25,2.931l1.747-14.113l13.082-3.505
	L279.802,543.846z M285.144,563.3c-0.33-10.957,8.848-20.213,19.884-20.545c11.036-0.332,20.834,8.353,21.164,19.31
	c0.118,3.89-1.424,8.149-3.521,12.344c-1.13,2.1-13.55,25.123-13.55,25.123L293.559,600l9.407-17.528
	C293.313,581.253,285.443,573.224,285.144,563.3z M298.8,562.888c0.115,3.811,3.224,6.817,7.036,6.702
	c3.81-0.115,6.814-3.304,6.699-7.115c-0.112-3.731-3.302-6.735-7.113-6.62C301.611,555.97,298.689,559.157,298.8,562.888z
	 M345.681,531.495l2.132,20.114l-9.072,1.616l-4.947-19.613L345.681,531.495z M414.639,560.922
	c4.06,15.242-10.394,21.803-19.332,23.915c-8.313,1.977-17.193,1.122-22.668-0.583l2.803-13.179
	c8.282,4.681,24.542,1.611,23.726-4.582c-1.274-10.157-29.369,5.29-34.125-16.525c-1.748-8.139,1.36-17.554,17.723-22.259
	c10.409-2.961,16.691-1.115,18.13-0.609l-1.172,13.031c-6.398-2.9-20.738-0.837-19.866,5.758
	C380.96,554.592,409.391,541.552,414.639,560.922z M490.971,509.124c5.953,7.649,5.07,16.993-6.529,26.019l-18.622,14.49
	l-34.152-43.89l17.932-13.954c9.466-7.367,18.302-6.491,23.962,0.782c1.952,2.508,3.778,6.926,2.462,11.573
	C482.664,502.2,487.849,505.111,490.971,509.124z M451.547,506.582l4.684,6.02l6.02-4.684c2.696-2.098,2.926-4.391,1.608-6.084
	c-1.318-1.693-3.595-2.034-6.292,0.064L451.547,506.582z M479.553,516.7c-1.609-2.069-4.57-2.381-7.643,0.009l-7.775,6.05
	l5.758,7.399l7.774-6.05C480.739,521.717,481.114,518.707,479.553,516.7z M503.035,436.665l25.189,21.15
	c12.229,10.269,11.161,23.896,2.527,34.178c-8.634,10.282-21.819,13.631-34.049,3.362l-25.189-21.151l9.758-11.621
	c0,0,20.443,17.166,25.554,21.457c5.11,4.292,10.384,3.324,13.704-0.63s3.36-9.315-1.749-13.607
	c-5.111-4.291-25.555-21.457-25.555-21.457L503.035,436.665z M538.905,397.455l-7.662,14.372l37.717,20.108l-7.138,13.391
	l-37.719-20.109l-7.662,14.373l-11.358-6.055l22.463-42.135L538.905,397.455z M555.643,344.706l-4.565,15.633l41.027,11.982
	l-4.255,14.565l-41.025-11.982l-4.566,15.633l-12.354-3.608l13.386-45.831L555.643,344.706z"/>
<path id="color_x5F_1" fill="#0D747D" d="M297.502,69.447c-125.131,0-226.93,101.8-226.93,226.928
	c0,125.128,101.8,226.928,226.93,226.928c125.126,0,226.926-101.8,226.926-226.928C524.428,171.247,422.628,69.447,297.502,69.447z
	 M122.289,296.375c0-37.165,11.666-71.639,31.48-100.024L394.667,442.09c-27.826,18.616-61.245,29.496-97.165,29.496
	C200.889,471.587,122.289,392.987,122.289,296.375z M428.129,412.982L183.528,163.464c30.666-26.333,70.479-42.301,113.974-42.301
	c96.612,0,175.209,78.6,175.209,175.211C472.711,341.12,455.829,381.983,428.129,412.982z M34.047,296.375H16.654
	c0-61.847,19.796-120.55,57.248-169.762l13.84,10.534C52.614,183.304,34.047,238.365,34.047,296.375z M578.345,296.375h-17.393
	c0-55.245-16.988-108.166-49.126-153.041l14.14-10.128C560.233,181.053,578.345,237.476,578.345,296.375z"/>
</svg>
