<svg xmlns="http://www.w3.org/2000/svg" viewBox="0 0 284.7 292.78"><defs><style>.cls-1,.cls-2{fill-rule:evenodd;}.cls-2{fill:#ebd63a;}</style></defs><title>mic</title><g id="Layer_2" data-name="Layer 2"><g id="Layer_1-2" data-name="Layer 1"><path class="cls-1" d="M129.16,292.78v-18c-2,.21-3.74.38-5.5.58-2.46.28-2.9-.09-2.9-2.51,0-3.5,0-7-.06-10.52,0-.6-.56-1.21-.91-1.79s-1.05-1.07-1.08-1.63c-.23-3.71-.35-7.43-.43-11.15,0-2,0-4,.08-6,.28-5.33.63-10.66,1-16a10.25,10.25,0,0,0,0-2.07,5.79,5.79,0,0,1,1.45-4.72c.76-1,.83-2.57,1-3.91.75-8.69,1.35-17.4,2.16-26.09.43-4.74,1.18-9.45,1.75-14.17.22-1.75.2-3.59,2.78-3.52.24,0,.63-.61.71-1,1.44-7.42.37-14.17-5.65-19.45-1.39-1.21-3-2.12-4.48-3.27-3.52-2.83-7.06-5.62-10.43-8.61-2.64-2.34-4.74-5.08-4.24-9a2,2,0,0,0-.82-1.51c-3.82-2.81-7.69-5.57-11.55-8.31-5.38-3.82-10.73-7.68-16.18-11.4-2.72-1.86-5.64-3.41-8.45-5.15-2.26-1.4-4.44-2.92-6.73-4.27a5.75,5.75,0,0,0-2.72-.79c-6.59,0-13.14-.06-19.35-2.65a10.14,10.14,0,0,1-1.42-.65,14.16,14.16,0,0,0-7.4-1.94c-7.46-.18-13.41-3.7-18.2-9.17a7.36,7.36,0,0,1-1.6-3.56A20.86,20.86,0,0,0,6.7,72.4c-4-6.28-6.58-13-6.26-20.65.1-2.45-.7-5-.35-7.38A64.41,64.41,0,0,1,2.72,33.55c.9-2.77,2.42-5.34,3.54-8A35.87,35.87,0,0,1,16.56,12,54.66,54.66,0,0,1,36.85.74C39.33,0,42.08.19,44.71,0,50.86-.32,56.59,1.77,62.4,3.22a32.21,32.21,0,0,1,5,2C71.58,7.13,76,8.69,79.94,11a19.28,19.28,0,0,1,9.51,12.24c.55,2.16.92,4.36,1.39,6.54a2.68,2.68,0,0,0,.46,1.08c5,6.34,6.33,13.66,6,21.44a3.27,3.27,0,0,0,1.19,2.83c5.94,5.58,11.8,11.24,17.69,16.86a23.81,23.81,0,0,0,2.74,2.39c7.14,4.87,12.21,11.77,18,17.92,3.42,3.6,6.59,7.43,9.81,11.21.71.83,1.25,1,2.12.26,1.15-1,2.13-.6,2.92.53,5.91,8.49,13.73,15.23,21,22.47,1.55,1.54,2.7,3.49,4.32,4.95A20.27,20.27,0,0,1,183.33,143a7.68,7.68,0,0,0,2,3c2.54,2.91,5.27,5.66,7.69,8.66a4.7,4.7,0,0,0,4.87,1.73c1.51-.26,2.29.21,3.23,1.46,2.52,3.36,5.4,6.46,8,9.75,6.24,7.86,12.54,15.68,18.58,23.69,5.81,7.68,11.31,15.59,16.95,23.39a4.23,4.23,0,0,0,.33.41c1.93,2.25,2,2.62.31,5.07l3.46,4.46c4.68,6,9.51,11.9,14,18,6.71,9.18,11.42,19.41,15.66,29.91a124.85,124.85,0,0,1,6.3,20.22h-2.09a64.49,64.49,0,0,0-1.67-7.21c-1.91-5.53-4.15-11-6.09-16.49-4-11.26-10.24-21.23-17.24-30.81-.94-1.28-2-2.49-3-3.73a3.1,3.1,0,0,0,.68,1.62c2.32,3.64,4.87,7.16,6.89,11,3.27,6.14,6.36,12.39,9.22,18.73,2.38,5.29,4.47,10.71,6.42,16.17,1.25,3.5,2,7.17,3,10.77h-4.18c-2.58-6.82-4.93-13.73-7.79-20.44a180.2,180.2,0,0,0-18.73-34c-3.15-4.44-6.75-8.58-10.2-12.92l-1.16,1c-2,1.62-2.42,1.66-4.21-.17a154.82,154.82,0,0,0-26.36-21.11c-10.89-7.09-21.33-15-33.2-20.5a1.86,1.86,0,0,1-1.28-2.31c.37-1.4-.36-2.2-1.33-3.06-2.73-2.4-5.36-4.92-8.1-7.31a1.85,1.85,0,0,0-1.7-.23c-1.64,1.17-3.51,2.26-4.61,3.84-1,1.38-1.74,3.61-1.3,5.07a20.71,20.71,0,0,1,.47,9,27,27,0,0,0-.7,3.35c0,6.72.18,13.44.2,20.16a4.06,4.06,0,0,0,1.29,3c.9.95,2,2.17,2.09,3.35.43,5,.7,10,.69,15,0,7.24-.33,14.48-.51,21.72-.1,4.28.77,3.71-3.78,4.8-1,.25-1.25.66-1.23,1.64.09,3.68.07,7.36.12,11,0,1.38-.52,2-2,1.85-1.78-.22-3.56-.35-5.58-.54v2.13q-.08,7.84-.14,15.68H145.9V275l-3.14.14v17.64ZM75.91,10.69l-.46.33a.7.7,0,0,0,0,.32,7.31,7.31,0,0,0,.4.95c3.36,6.26,5.22,12.83,4.54,20a55.09,55.09,0,0,1-5.32,19.13,46.29,46.29,0,0,1-4.39,7.23,71.45,71.45,0,0,1-7.55,9.21c-4.64,4.49-9.57,8.68-15.6,11.41-4.78,2.16-9.17,5.11-14.63,5.64S22,85.45,17.12,82.25c-1.66-1.09-3.47-2-5.22-3l-.35.31a6,6,0,0,0,1.15,1.7c1.75,1.31,3.63,2.44,5.39,3.74a11.37,11.37,0,0,0,7.22,2c3.23,0,6.47,0,9.7,0l0,.48c-4.59,1.85-9.43,1.22-14.57,1.15,4.64,2.69,9.41,3.78,14.23,2.33a60.9,60.9,0,0,0,13.39-5.7c7.06-4.17,13.76-9,20.58-13.52a16.6,16.6,0,0,0,3.87-3.17c3.44-4.33,6.79-8.74,10-13.26a30.36,30.36,0,0,0,5.22-13,1.81,1.81,0,0,0-.38-1.47C86,40,84.51,39.23,82.92,38.35c-.93,4.49-1.29,8.82-3.85,12.46a3.17,3.17,0,0,1,0-1.34c.82-4,1.71-8,2.47-12,1.28-6.75,1-13.37-1.89-19.73-.79-1.72-1.64-3.41-2.51-5.09C76.81,12,76.33,11.35,75.91,10.69ZM74,93.82l2.07-2.9L61.9,98a5.81,5.81,0,0,0,.55.51q10.35,6.51,20.72,13a2.14,2.14,0,0,0,1.09.45,12.11,12.11,0,0,0,7.36-3.32ZM117,90c-1.25,2-2.35,3.8-3.52,5.56-.59.9-.47,1.47.39,2.15,2,1.58,3.92,3.24,5.81,4.94q10.06,9,20.1,18.07c1.61,1.44,3.29,2.81,5.17,4.41.72-1.79,1.41-3.29,1.89-4.87a2.4,2.4,0,0,0-.39-1.87c-1.41-1.75-3-3.39-4.41-5-2.19,1.91-2.86,2-4.57.59a47.14,47.14,0,0,1-3.91-3.42c-3.63-3.71-7.27-7.41-10.72-11.28-.92-1-1.21-2.61-1.75-3.95a8.22,8.22,0,0,0-.83-2.15A43.33,43.33,0,0,0,117,90ZM97.18,112.36l-6.7,4.16a1.52,1.52,0,0,0,.3.37c8.26,5.7,16.58,11.34,24.77,17.16,2.31,1.64,4.62,1.12,7.4,1.22Zm82.06,71.72c19.86,12.89,40.57,24.52,57.48,41.49l1.71-1.53-1.05-.84c-7-6-14.22-11.84-21.08-18-2.66-2.4-5.88-4.67-6.37-8.77,0-.22-1.08-.58-1.51-.44-3.69,1.21-6.83.23-9.72-2.12-4.52-3.67-9.09-7.3-13.65-10.93-.32-.25-.84-.59-1.14-.49C182.32,182.91,180.77,183.52,179.24,184.08Zm-25.43,75.57V220.48h-4.28c.2,13.21.4,26.3.6,39.59ZM97.14,58.89a20.56,20.56,0,0,0,1.34,1.68q3.52,3.59,7.1,7.11c2,2,4,4,6.13,5.87,6.6,6,13.37,11.89,19.81,18.09,5,4.8,9.56,10,14.32,15,.35.37.76.68,1.14,1l.31-.32a18.12,18.12,0,0,0-1.08-1.48q-10-11.28-20-22.52A62.28,62.28,0,0,0,121.56,79c-4.81-4.32-9.68-8.57-14.45-12.93-3-2.72-5.83-5.57-8.81-8.43ZM136,173.77c-.33,8.78-.61,17.32-1,25.86a44.79,44.79,0,0,1-1,6.28,1.78,1.78,0,0,1-.94,1.12,2.19,2.19,0,0,0-1.42,2.59,36.69,36.69,0,0,1-.16,3.77c0,1.12,0,2.24,0,3.32h5.85V173.52ZM103.7,76.39l-.7-.11c-1.15,2.52-2.35,5-3.41,7.59a1.86,1.86,0,0,0,.49,1.62c3.1,2.74,6.27,5.4,9.62,8.26,1.12-1.89,2.18-3.78,3.33-5.61.58-.92.34-1.49-.38-2.21-2-1.94-3.83-4-5.72-6C105.83,78.79,104.78,77.58,103.7,76.39Zm61.89,94.09c3.42,3.11,6.65,6,9.9,9a1.15,1.15,0,0,0,.94.27,13.28,13.28,0,0,0,6.41-4.31l-8.19-8.51ZM127,100.62c2.29,2.56,4.34,4.87,6.42,7.17a7,7,0,0,0,.9.72l3.57-7.06-5.49-5.92C131.69,98.31,130.19,100.1,127,100.62Zm4.18,52.49C128,149.47,125,146,122,142.46a2.57,2.57,0,0,0-1.4-1c-2.4-.29-4.82-.44-7.21-.64,4.73,5,11.39,7.87,15.28,13.84Zm17.56,41c0,6.35,0,12.48,0,18.61,0,1.07,0,2.15,1.48,2.29s2-.87,2-2c.05-5.91,0-11.81,0-17.6Zm6.79-7.91a17.88,17.88,0,0,0-.56-3.44c-.93-2.58-3.09-3.2-4.69-1.48-1.8,1.93-2.46,8-.81,10.07a4.5,4.5,0,0,0,3.2,1.47c.69,0,1.66-1.26,2-2.14A26,26,0,0,0,155.53,186.23Zm2.91-65.93-.45.36a7.71,7.71,0,0,0,.93,1.48c1.71,1.78,3.45,3.53,5.21,5.27,3.73,3.68,7.45,7.38,11.26,11a2.26,2.26,0,0,0,2,.46c1-.68.3-1.5-.34-2.15-.28-.29-.56-.58-.87-.85q-8.21-7.29-16.42-14.57A15.28,15.28,0,0,0,158.44,120.3ZM144.59,243.65l.37,0q.3-11.31.59-22.63c-3.15.07-3.16.07-3.15,2.92s0,5.62,0,8.44c0,1.19-.36,2.51,1.28,3.16.34.13.49,1,.53,1.54C144.41,239.3,144.48,241.48,144.59,243.65Zm-12.91,19.51-4.59-.4c.18,3.4.34,6.58.5,9.9h4.09ZM61.62,96c0-.18,0-.35.05-.52-.43,0-.87,0-1.31-.12-4.38-.73-8.87-1.1-13.11-2.32-2.81-.81-4.81-.12-7,1.34C47.29,96.32,54.35,97.57,61.62,96Zm120.64,57.17-.72.18c0,1.07-.46,2.58.08,3.13,2.95,3,6.15,5.81,9.31,8.73l1.2-1.91ZM59.77,36.38c.32-1.64.67-3.2.88-4.77A1.39,1.39,0,0,0,60,30.46c-1.39-.62-2.85-1.11-4.29-1.65-1.87,6.6-2.18,5.63,3.68,7.59C59.48,36.42,59.54,36.4,59.77,36.38Zm31,10.12c1.25-.27,4.25-3,4.06-3.8-.63-2.57-1.39-5.11-2.18-7.91ZM62.19,59.3c-1.27-4.44-2.57-5.53-6.84-5.81C55.46,57.21,56.82,58.39,62.19,59.3ZM32.68,37.57c4,.72,4,.72,4.49-3,.06-.49.11-1,.16-1.46-4.46-1-4.9-.68-4.74,3.56C32.6,36.91,32.64,37.19,32.68,37.57ZM158.78,172l2.28-1.77-11.28-9.18-.23.29ZM95.89,68.47C94,71.7,92.14,74.58,91,78.1,95,77.25,97.9,71.69,95.89,68.47Zm-9-46c-1.34-4.3-4.19-7.76-7.51-9.3.89,1.82,2.1,3.58,2.6,5.53C82.69,21.31,84.59,21.85,86.93,22.48Zm-26.85,30c-.12-1.32-.19-2.5-.34-3.67a1.05,1.05,0,0,0-.59-.72c-1.58-.42-3.17-.77-4.8-1.15-.24,3.71,0,4.06,3.25,4.91Zm74.41,169.43h-2.62c0,2.83,0,5.56,0,8.28a5.35,5.35,0,0,0,.72,1.71c.41-.55,1.11-1.07,1.18-1.67C134.12,227.53,134.27,224.8,134.49,221.91Zm35.11-59.66.5-.49-11.95-11.29-.31.32A31.62,31.62,0,0,0,169.6,162.25ZM135.8,273.36c.75-.36,1.92-.65,1.93-1,.14-3.17.08-6.36.08-9.54l-.77-.27c-.41.39-1.17.77-1.18,1.18C135.76,266.76,135.8,269.79,135.8,273.36Zm-74.09-224C61.33,53,63,54.85,66.85,55,66.42,52,65.65,49.2,61.71,49.37ZM49,32.71l3.6,1.14c.42-1.89.81-3.7,1.23-5.57a11.45,11.45,0,0,0-2.21-.44,1.49,1.49,0,0,0-1.2.57C49.9,29.77,49.51,31.19,49,32.71Zm21.36,7.34c1.18-2.73-.18-4.69-3.83-5.5C65.47,38.76,65.12,39,70.39,40.05ZM54.24,36.71c-.11,1-.27,2-.28,2.95a1.13,1.13,0,0,0,.56.9c1.57.47,3.17.84,4.77,1.25.53-3.11.53-3.11-2.19-4.09ZM39.51,81c-1.71-3.35-4.31-4.67-7.88-4.1A7.79,7.79,0,0,0,39.51,81ZM64.9,63.22c-2-2.12-4.57-2.06-7-2.6l4,5.78ZM51.89,40c1-4,.24-5.17-3.2-4.95C47.34,38.76,47.86,39.6,51.89,40ZM34.73,50.32c1.23,4.77.84,4.81,4.4,4.41C39.38,50.35,38.85,49.8,34.73,50.32ZM52,58.8c1.61,5,2.71,6,6.18,5.61a15.86,15.86,0,0,1-2.08-3.17C55.34,59.2,53.82,58.88,52,58.8ZM62.42,31.91a1.42,1.42,0,0,0-.24.41c-.19.89-.36,1.78-.53,2.68-.44,2.39-.07,2.87,2.62,3.25.16-.88.28-1.77.47-2.65C65.37,32.81,65.34,32.75,62.42,31.91ZM43.86,26.82c-4.19-.69-4.42-.47-4.46,4l3.38.62C43.17,29.8,43.5,28.36,43.86,26.82ZM33.37,30.61c4.38.55,5.14-.12,4.56-3.94C33.91,26.52,33.76,26.65,33.37,30.61ZM57.46,24.2c-.49,1.15-.87,2.06-1.3,3.09l5.28,1.89c.41-1,.74-1.72,1.12-2.59ZM34.56,75.3c-1.41-3.63-2.71-4.46-6.77-4.22.72,1.23,1.1,2.77,2.07,3.33C31.09,75.11,32.8,75,34.56,75.3ZM67.67,18.89c-4.17-2.54-4.41-3.07-6.52.34l4.41,2.05Zm-29.12,19,3.13.44c.23-1.72.44-3.32.65-4.89-2.91-.68-3.49-1.5-3.54,2.27A21.9,21.9,0,0,1,38.55,37.91Zm10.78,14c.34,3.89,1.48,5.07,4.65,4.91C53.25,52.13,53,51.87,49.33,51.93Zm-20,2.88c-.25-.91-.47-1.73-.7-2.56-.67-2.46-1.07-2.64-3.62-1.6C25.25,54.83,26.06,55.66,29.31,54.81Zm5.43-29.47c4.33-.09,4.53-.26,4.88-4.09C35.94,21,35.33,21.47,34.74,25.34ZM176.18,182.28c2.45.41,8.85-2,10.26-4.27-1.3.07-2.55-.21-3.43.23C180.62,179.44,178.38,181,176.18,182.28ZM16.61,51.65c.22,4.61.88,5.24,4.05,4l-1-4.54Zm24-26.78c4.23.62,3.71,1,4.66-3.2C41.5,20.83,41,21.14,40.63,24.87Zm8.14,2.71c-3.47-.94-4-.46-4.16,4.15l2.81.26C47.9,30.41,48.34,29,48.77,27.58Zm79.53,64.2c-.63,2-1.21,3.6-1.63,5.28a1.38,1.38,0,0,0,.57,1.24,1.79,1.79,0,0,0,1.42-.28C130.76,96.65,130.74,94.37,128.3,91.78ZM2.41,48.58c3.42-.82,3.65-1.24,2.7-5.07C1.69,44.24,1.37,44.84,2.41,48.58Zm140,57.39c-1.12,2.69-2.86,4.41-6.44,4.22l3.34,2.73C142.1,111.24,141.88,108.48,142.38,106Zm-72-60.8V42.31l-2.2-.68-2.27-.71C65.54,44.07,66,44.51,70.4,45.17Zm-29.22,31C40,73,38,71.57,34.73,71.6,36.09,74.24,37.76,76.42,41.18,76.12ZM244.47,217.75c-1.29-1.14-2.46-2.24-3.71-3.24-.32-.25-.9-.19-1.35-.27,0,.51-.32,1.18-.1,1.51,1,1.47,2.1,2.84,3.33,4.46ZM68.9,58.4l-6.21-2.65A17.61,17.61,0,0,0,64,58.43,33.41,33.41,0,0,0,66.29,61Zm63.38,112.79c-.29-4.38-.57-8.65-.85-12.92l-.45-.2a3.67,3.67,0,0,0-.51,1.25c.06,3.82.17,7.65.27,11.47a1.47,1.47,0,0,0,.14.4Zm24.86-43.65-.6.36c0,.46-.19,1.13,0,1.34q2.41,2.17,5,4.18c.22.17.8-.1,1.22-.16-.08-.36,0-.85-.24-1C160.78,130.63,159,129.09,157.14,127.54ZM8.38,62.89c-.44-1.14-.81-2.13-1.24-3.25l-3.8.81c.46,1.33.83,2.42,1.2,3.51ZM6.18,54.4c-3.86.57-4.18,1.05-3,4.47l3.54-1C6.53,56.62,6.36,55.57,6.18,54.4Zm37.21-16,3,.4c.16-1.72.29-3.21.43-4.79L44,33.66C43.81,35.3,43.62,36.74,43.39,38.37ZM37,39.86H33.07c-.51,3.24.56,4.06,3.91,3.07Zm9.36,17.79c1.18,4.28,2,5.15,4.72,4.81C50.16,58.55,49.45,57.82,46.34,57.65Zm-34.27-28c3.69-.7,4.65-1.84,4.19-4.83C13,25.67,12.32,26.42,12.07,29.65Zm6,45.33c-1.19-3.71-1.92-4.07-4.72-2.4C14.2,75.82,14.5,76,18.06,75Zm34.56-24.9c-.12-1.2-.22-2.25-.32-3.27l-3.86-.71C48.61,49.85,48.06,49.79,52.62,50.08ZM33.75,45.16c.09,3.63.07,3.48,4.34,2.94C37.34,44.52,38.31,44.94,33.75,45.16ZM71.23,35c1.22-2.84,1.48-2.46-2.92-5.11-1.56,2.23-1.55,2.24.66,3.64ZM50.35,15.74C55,17,54,17.34,56,14.36,51.84,12.61,51.83,12.59,50.35,15.74ZM22.42,71.22c1.28,3.68,2,4.14,4.88,3C25.47,70.45,25.37,70.38,22.42,71.22ZM46.19,25.34c3.07,1.15,3.64.78,4.38-2.91l-3.4-.61c-.32.93-.61,1.73-.86,2.54A4.69,4.69,0,0,0,46.19,25.34Zm80.6,64.13-.61,0c-3.13,4-3.73,7-2.06,8.27.89-2.19,1.85-4.46,2.72-6.76A4.09,4.09,0,0,0,126.79,89.47ZM30.74,38V32.62c-.93.39-2.17.56-2.3,1a11.46,11.46,0,0,0-.2,4A10.76,10.76,0,0,0,30.74,38ZM50,12.75c-3.3-1.38-4.46-.94-5.38,2.07C48.41,15.81,48.53,15.77,50,12.75Zm8.58,9.92L63.44,25l1-1.87C61.44,20.5,59.57,20.36,58.6,22.67ZM29.87,50.35c.25.94.47,1.81.73,2.67.67,2.19.79,2.24,3.22,1.47a14,14,0,0,1-.77-2.38C32.79,50.32,31.77,49.89,29.87,50.35ZM76,23.81c-2.56-2.26-3.53-2.07-4.77,1l3.06,1.87ZM54.46,42.52l-.57.38c.27.68.38,1.77.85,2a36.94,36.94,0,0,0,4.73,1.26l.42-.39c-.27-.64-.39-1.65-.85-1.84A36.69,36.69,0,0,0,54.46,42.52ZM23.78,65.47c-.36-2.93-.67-3.66-4.44-2.33C19.5,65.77,19.8,65.93,23.78,65.47Zm23.49-48.3c-4-1-4.73-.58-4.8,2.43C46.33,20.09,46.33,20.09,47.27,17.17Zm.74,3c3.7.94,3.83.89,4.79-1.78C49.27,16.84,48.88,17,48,20.19ZM44.52,50.9c.22,4.11.88,4.94,3.73,4.55C47,53.93,48.37,50.54,44.52,50.9Zm-34,2.19c-3.1.42-3.2.64-2,4.36l2.92-.64C11.1,55.44,10.8,54.26,10.49,53.09ZM11,40c3.48-.1,3.31,0,3-4.18C10.82,36.11,10.61,36.39,11,40Zm14.3,36.55c1,3.06,2.14,3.28,5.33,2.59C29.65,76.78,28,75.68,25.27,76.55ZM23.65,38.24c2.67.1,3.51-1.48,2.72-4.62-1.74-.49-2.46.28-2.5,2C23.86,36.42,23.73,37.27,23.65,38.24ZM36.06,60.6C34.72,56.23,35,56.4,32,57,32.68,60.69,32.68,60.69,36.06,60.6Zm-26,1.87L13.25,62c-.38-1.17-.73-2.23-1.13-3.43l-3.28.71C9.28,60.44,9.67,61.44,10.07,62.47ZM41.1,61c-.24-.73-.48-1.42-.7-2.12-.69-2.27-.81-2.34-3.26-2C38.48,61.39,38.2,61.24,41.1,61Zm14.15,9.1c-1.46-3.53-3.07-5.88-5.31-5.21C51.33,67,52.18,69.56,55.25,70.11Zm.47-46.54-3.22-.72-1.28,3.22C55.14,27,54.27,27.05,55.72,23.57ZM12.31,52.74c.29,3.7.49,3.9,3.6,3.54-.19-.78-.36-1.54-.56-2.3C14.77,51.82,14.71,51.8,12.31,52.74ZM15,30.51c-3.7.37-4,.74-3.69,4C14.46,34,14.64,33.76,15,30.51Zm26.53-14c-3.23-.35-4,.15-4.67,3.11C40.16,20,40.37,19.85,41.55,16.5Zm153,146.08c2.38.74,2.54.69,3.39-2.18.17-.58-.08-1.75-.46-1.93-1-.43-1.75.12-2.06,1.2S194.89,161.54,194.57,162.58ZM26,26.52c2.48.14,3.25-.86,3.27-4.22C26.49,22.35,25.83,23.21,26,26.52ZM45.88,61.6c-1.47-1.32-.23-4.86-3.81-4.56C42.07,60.25,43.11,61.55,45.88,61.6Zm7.82-50c3.56,1.54,4.3,1.4,5.6-1C55.63,9.28,55.63,9.28,53.7,11.61ZM11.14,45.42c3.18-.18,3.51-.69,2.54-3.93L11,42c0,.9,0,1.69,0,2.47A8.05,8.05,0,0,0,11.14,45.42Zm50.07-29.5c-3.17-1.38-3.44-1.31-4.89,1.29C58.69,18.94,59.42,18.75,61.21,15.92Zm10.58,5.33c-2-2.06-3.05-1.86-4.53.89C69.54,24.25,69.66,24.22,71.79,21.25ZM18.1,58.33c.4,3.33.48,3.38,3.93,2.31C21.5,57.43,21.5,57.43,18.1,58.33ZM48.22,41.72c-.51,2.23,1,3.26,3.85,2.67C52.47,41.84,52.19,41.65,48.22,41.72ZM9.63,67c-.29-1-.51-1.72-.78-2.61l-3.79.75L6.36,68ZM65.05,15.33c3.88,2.49,4,2.51,5.3.63C67.77,13.35,67.21,13.27,65.05,15.33ZM35.88,16.78c-2.85-.21-3.71.6-3.85,3.49C34.6,20.57,34.8,20.4,35.88,16.78ZM26.15,40l-2.58.22v3.2h2.95a12.69,12.69,0,0,0,0-1.53C26.44,41.28,26.29,40.68,26.15,40ZM69.69,56.28c2.49-3.42,2.49-3.42-.8-4.75-.31-.13-.64-.21-1-.31-.14.09-.28.18-.43.26ZM59.55,13.42c3.3,1.54,3.62,1.5,5.39-.67C61.9,10.91,61.3,11,59.55,13.42ZM27.13,57.21c.64,3.15,1.15,3.54,3.83,3C30.2,56.7,30.2,56.7,27.13,57.21Zm47.57-10c1.4-2.25.42-3.67-2.67-4.07C71.77,45.86,71.77,45.86,74.7,47.25ZM28.36,43.48,31.18,43c-.13-1.17-.24-2.16-.34-3.13h-2.9C28.08,41.13,28.21,42.23,28.36,43.48Zm.51-12.57c2.68.53,3.05.09,3.08-3.7C29.37,27.23,29.14,27.51,28.87,30.91ZM18.37,34.8c-2.84.36-3.21,1-2.43,4.34C18.67,39,18,39.43,18.37,34.8Zm.05,11c-1.07.55-2.23.77-2.53,1.4s0,2.24.41,2.44c.74.32,1.84-.15,2.87-.3C18.91,48.05,18.72,47.18,18.42,45.77Zm29.47,26.9c-1.32-3.28-2.18-4-4.88-3.91C44,70.82,45.07,72.7,47.89,72.67ZM5.48,49.59C2.2,50.3,2,50.6,2.8,53.46,6,52.66,6,52.66,5.48,49.59ZM66.6,46.36c.1,2.13,1.57,3.3,4.28,3.55C71,47.45,70.8,47.27,66.6,46.36ZM13.41,21.23c-3.23.51-4.21,1.64-4,4.32C12.38,25.71,12.07,22.94,13.41,21.23Zm21,41.49c.61,2.66,1.47,3.24,4.49,3C37.22,62.48,37.05,62.36,34.41,62.72Zm4.34-50.83c-2.73-.5-3.69.14-4.43,2.94C37.14,15.07,37.14,15.07,38.75,11.89Zm-24.65,35-2.78.58c.25,1.22.47,2.26.71,3.45l2.45-.57C14.35,49.14,14.23,48.09,14.1,46.85ZM33.59,22c-2.36-.29-3,.4-3.21,3.77C32.85,25.88,33.26,25.4,33.59,22Zm-6.2,26.17c-.15-3.08-.7-3.48-3.4-2.47C24.51,48.82,24.51,48.82,27.39,48.17Zm-16.71,16c.49,2.84.54,2.86,3.84,2C14.07,63.31,13.6,63,10.68,64.13Zm5-19.64c2.81.17,3.12-.4,2.07-3.59C15.32,40.89,15.25,41,15.67,44.49Zm13.1,1c.47,3.19.5,3.22,3.14,2.72C31.71,44.48,31.64,44.42,28.77,45.46ZM5.26,38.59c-2.66.3-3.21,1-2.94,4C5.47,41.67,5.67,41.41,5.26,38.59ZM64.11,27.24,62.87,30l2.89,1.31c.48-.92.87-1.65,1.31-2.5Zm-46.48,1C20,28,20,28,20.52,23.9,18.3,23.92,17.67,24.84,17.63,28.26ZM42.39,7.49c-3-.44-4.22.19-4.92,2.48C39.78,10.63,41.3,9.64,42.39,7.49ZM7.67,51.77c2.89-.32,3.12-.76,1.87-3.7C6.87,48.51,6.68,48.9,7.67,51.77ZM39.35,14.69c3.61,0,3.78-.11,4.55-2.77C41.29,11.42,40.65,11.8,39.35,14.69ZM15.41,77.21c1.48,3,2,3.25,4.14,1.92C18.58,76,18.86,76.65,15.41,77.21ZM7.22,46.57C9.75,46.29,10,45.79,9,42.42,6.9,42.64,6.9,42.64,7.22,46.57Zm41-36.27c3,1.31,3.92,1.12,5.08-1.1C51.41,8.71,49.48,8,48.21,10.3ZM64.09,43.14c.44-2.76.39-2.82-2.75-3.45C60.93,42.47,61.12,42.71,64.09,43.14ZM40.58,50.7a26.32,26.32,0,0,1,.35,2.65c0,1.62.81,1.94,2.21,1.45C42.67,50.42,42.67,50.42,40.58,50.7Zm6-1.73c-.16-3.71-.16-3.71-2.7-3.12C43.48,48.59,43.68,48.83,46.59,49ZM21.8,27.31c2.35-.1,2.82-.89,2.64-4.23C22.46,23.36,21.88,24.27,21.8,27.31Zm50.83,3,.73-2-3.27-2C68.88,28.14,69.09,28.46,72.63,30.28Zm4.66-5.78c-2.43,2.67-2.16,3.52,1.23,4.43C78.55,27.36,78.83,25.78,77.29,24.5ZM38.85,43.14l2.61.38c.41-3.4.24-3.6-2.61-3.25,0,.36-.08.75-.08,1.14S38.81,42.43,38.85,43.14ZM17.78,20c-2.47.2-2.87.62-3.58,3.77C17,23.28,17.64,23.19,17.78,20Zm3.3-2.78c2.33,0,2.61-.34,3.67-3.78C22.47,13.22,21.76,14,21.08,17.18ZM49.53,68.13c-1.92-4.16-2.1-4.33-4.42-4.08C46.22,65.78,46.79,67.93,49.53,68.13Zm-37.68.17c.27.91.49,1.68.74,2.54l3.5-.8C15.32,67.82,15.32,67.82,11.85,68.3Zm-.9,3c-.33-1-.6-1.83-.91-2.81L7,69.45,8.69,72.2ZM49.57,70l-.53.53a30.05,30.05,0,0,0,1.74,3.08c.78,1.09,1.66,1,2.73-.51Zm-25,9.18c-1.42-3.09-1.82-3.3-4-2.18.31.73.44,1.87,1,2.09A8.87,8.87,0,0,0,24.56,79.13ZM43.47,43.5H46c.64-2.83.22-3.28-2.57-2.79Zm93.26,64.18c.15.23.31.46.46.7a9.37,9.37,0,0,0,2.27-1.55c.79-1,.75-2.19-.31-3.73Zm-118-36.29c.39,3.34,1,4,3.2,3.17C21,71.45,20.59,71.08,18.73,71.39ZM40,63.19c1.51,3.25,1.59,3.31,4.26,3.36C43.1,63.63,42.49,63.15,40,63.19Zm-23.69-30c2.79-.38,3.06-.75,2.76-3.62C16.78,29.6,16.58,29.85,16.28,33.18Zm7.29-21.52c2.7.44,3.41-1.49,4.4-3.19C25.2,8.3,24.43,8.87,23.57,11.66Zm-6.91,6.55c2.31-.08,2.66-.45,3.55-3.82C18,14.47,17.07,15.46,16.66,18.21Zm12.88-5.6c-2.4-.06-3.07.55-3.87,3.53C28,16.22,28.46,15.81,29.54,12.61ZM22.84,81c.67,2.14,1.73,2.62,4.48,2C26.33,80.78,26,80.62,22.84,81Zm4.8-52.88c-2.42-.32-2.89.3-2.62,3.44C27.25,31.6,27.25,31.6,27.64,28.14ZM73.72,13.42c-2.49-2-3-2-4.61-.62C71.75,15.14,71.75,15.14,73.72,13.42Zm-16,6.73c-3-1.67-3.4-1.56-4,1C56.77,22.14,56.77,22.14,57.76,20.15ZM20.09,38.29c1.85,0,2.1-.5,2.05-4.17C20.27,34,19.94,34.59,20.09,38.29ZM28.53,81c.77,2.48,2.64,2.87,5.22,1ZM26.68,67.26c.38,2.12,1.28,2.52,4,1.91C29.71,66.77,29.71,66.77,26.68,67.26ZM64.81,48c.18-2.47-.5-3-3.26-3.12C61.37,47.12,61.37,47.12,64.81,48ZM24.2,55.39c-.39-1.41-.71-2.73-1.14-4-.11-.29-.59-.46-.9-.69-.16.35-.48.73-.44,1.06.1,1,.37,1.9.55,2.85S23.09,55.85,24.2,55.39ZM56,66.21l-.35.59a18.71,18.71,0,0,0,2.53,2.65c.16.12,1.28-1,2.31-1.83ZM46,77.86l.36-.37c-.88-2.62-2.75-4.32-5.43-4.43ZM25,62.38c.9,3.2,1.1,3.35,3.39,2.56C27.61,62.23,27.4,62.07,25,62.38ZM77.15,30.64,74.62,29c-1.18,2.06-.81,2.87,1.65,3.75.28-.56.56-1.12.83-1.68A2,2,0,0,0,77.15,30.64Zm-58-8.27c2.43-.11,2.82-.59,3-3.42C19.67,19.23,19.67,19.23,19.1,22.37ZM75.16,42c.32-2.1-.92-3.09-2.65-3.82C71.9,40.75,72.14,41.08,75.16,42ZM244.22,221.43l-.59.54,7.56,8.67.35-.3ZM20.86,32.09c2.16.06,2.64-.66,2.37-3.41C20.94,28.87,20.72,29.18,20.86,32.09ZM31.05,17.46c-2.06-.12-2.46.3-3.28,3.28C30.05,20.89,30.05,20.89,31.05,17.46ZM28.66,10.7c2.86.54,3.17-1.75,4.53-3.09C30.49,7.22,29.6,8.86,28.66,10.7ZM45.83,4.37c-2.32-1.14-3-.92-4.55,1.42C43.13,6.59,44.59,6,45.83,4.37Zm25,13.85c2.51,2,2.76,2,4.16.24C72.35,16.53,72.17,16.52,70.81,18.22ZM23.56,21.69c2.11-.36,2.63-1,3.05-3.59C24.35,18.14,23.75,18.82,23.56,21.69ZM20.8,67.55c.57,2.21.72,2.26,4.12,1.47C25.06,67.29,24.9,67.18,20.8,67.55Zm8.78-5.19c.38,1.94,1.4,3,3.54,2.75C32.76,62.69,32,62.12,29.58,62.36Zm11.93,8.41c-.71-2.72-1.4-3.19-4.11-2.82C38.36,69.51,39.4,70.85,41.51,70.77ZM16.8,61.35c0-2.93-.43-3.31-2.91-2.7L15,61.7ZM37.13,3.21a4.59,4.59,0,0,0-4.84,3C34.68,6.47,35.56,4.48,37.13,3.21Zm36.3,30.4c-1,2.34-.79,2.69,1.79,3.74C76,35.53,75.44,34.28,73.43,33.61ZM43,10c2.73.49,3.17.31,4.36-1.72C44.49,7.64,44.37,7.69,43,10ZM36.33,69.74c-1.57-2.65-1.9-2.83-4.25-2.44C32.52,69.64,34.39,69.58,36.33,69.74ZM51,5.41c-2.73-.82-3.35-.65-4.69,1.24C48.13,7.15,49.75,7.22,51,5.41Zm-42,31.85c-2.06.41-2.34,1-1.72,3.52C9.36,40.65,9.36,40.65,9.05,37.26ZM41.8,48.43c.49-2.86.12-3.31-2.54-3C40,46.62,39.24,48.83,41.8,48.43ZM9.43,31.94c-1.79.32-2.12,1-1.81,3.67C9.53,35.29,9.69,35,9.43,31.94ZM3.31,37.36C6,36.78,6.16,36.42,5.86,33,4.08,34,4.16,35.73,3.31,37.36Zm7.84-10.48c-2.55.4-2.65.57-2.7,3.89C10.75,30.43,10,28.26,11.15,26.88ZM21.81,40.35c-2.13-.09-2.32.43-1.54,3.68C22.81,43.43,20.9,41.44,21.81,40.35Zm-3.55,25.5-.88-3-1.71.42C16.08,66.26,16.24,66.42,18.26,65.85ZM60.31,4.49C58.43,4.2,56.73,3,55.11,5,56.87,5.43,58.53,6.39,60.31,4.49ZM33.92,12.32c-2.11-.22-3,.71-3.45,3.22C32.84,15.68,32.72,13.49,33.92,12.32ZM66,23.71c-.37.72-.63,1.25-1,1.88l2.92,1.56c.29-.74.49-1.24.68-1.74Zm2.74-13c-2-.2-3.4-2.13-5.21-.39C65.13,10.39,66.44,12.73,68.72,10.67Zm-12.06-4C54.89,6.28,53.26,5,52,7.19,54.47,8.17,55.2,8.11,56.66,6.65Zm-33.39,51c.63,3,.68,3,2.68,2.62C25.42,57.78,25,57.38,23.27,57.62ZM37.41,7.45c-2.17-.38-2.95.25-3.94,2.94C35.83,10.73,35.9,8.38,37.41,7.45Zm-26,65.38-1.93.79a25.09,25.09,0,0,0,1.6,2.19,1,1,0,0,0,1,.24c.2-.09.35-.64.27-.92A23.21,23.21,0,0,0,11.42,72.83Zm51-64.22c-3-1.54-3.64-1.56-4.77-.06C59.25,8.72,60.65,10,62.44,8.61ZM61,6.44c2.61,1.48,3,1.51,4.26.31C62.76,5.29,62.76,5.29,61,6.44ZM20.18,46.13c1,.84-.34,2.69,1.65,2.68a4.49,4.49,0,0,0,.38-2.07C22.12,45.57,21.41,45.42,20.18,46.13ZM37,5.8c2.09.53,2.92-1,4-2.19C39.25,3,38.51,3.38,37,5.8ZM66.16,8.38c1.84.68,3.2,1.56,4.9,1.1C69.7,8.58,68.48,7.2,66.16,8.38ZM45,2.18l.09.67c1.39.38,2.8.9,3.87-1Zm31.65,17-2,1.61,3.07,1.81C77.25,21.16,77,20.33,76.63,19.13Zm88.18,120.19,2.36,2.12.87-2.73ZM11.94,19.45c2.45-.24,2.83-.65,3.22-3.43ZM39.93,78c1.68,2.44,1.89,2.47,3.71.71ZM50.33,4.2l3.56-.38c0-.18,0-.37-.07-.56C52.52,2.49,51.33,2.53,50.33,4.2ZM19.47,69.4c-.09-1.59-.79-2-2.13-1.4C17.72,69.82,17.72,69.82,19.47,69.4Z"/><path class="cls-2" d="M280.86,292.78c-1-3.6-1.75-7.27-3-10.77-1.95-5.46-4-10.88-6.42-16.17-2.86-6.34-5.95-12.59-9.22-18.73-2-3.79-4.57-7.31-6.89-11a3.1,3.1,0,0,1-.68-1.62c1,1.24,2,2.45,3,3.73,7,9.58,13.29,19.55,17.24,30.81,1.94,5.53,4.18,11,6.09,16.49a64.49,64.49,0,0,1,1.67,7.21Z"/><path class="cls-2" d="M142.76,292.78V275.14l3.14-.14v17.78Z"/><path class="cls-2" d="M75.91,10.69c.42.66.9,1.29,1.26,2,.87,1.68,1.72,3.37,2.51,5.09,2.91,6.36,3.17,13,1.89,19.73-.76,4-1.65,8-2.47,12a3.17,3.17,0,0,0,0,1.34c2.56-3.64,2.92-8,3.85-12.46,1.59.88,3.07,1.62,4.45,2.51a1.81,1.81,0,0,1,.38,1.47,30.36,30.36,0,0,1-5.22,13c-3.2,4.52-6.55,8.93-10,13.26a16.6,16.6,0,0,1-3.87,3.17c-6.82,4.57-13.52,9.35-20.58,13.52A60.9,60.9,0,0,1,34.7,91c-4.82,1.45-9.59.36-14.23-2.33,5.14.07,10,.7,14.57-1.15l0-.48c-3.23,0-6.47,0-9.7,0a11.37,11.37,0,0,1-7.22-2c-1.76-1.3-3.64-2.43-5.39-3.74a6,6,0,0,1-1.15-1.7l.35-.31c1.75,1,3.56,1.86,5.22,3,4.88,3.2,10.23,3.19,15.77,2.66s9.85-3.48,14.63-5.64c6-2.73,11-6.92,15.6-11.41a71.45,71.45,0,0,0,7.55-9.21,46.29,46.29,0,0,0,4.39-7.23,55.09,55.09,0,0,0,5.32-19.13c.68-7.17-1.18-13.74-4.54-20a7.31,7.31,0,0,1-.4-.95.7.7,0,0,1,0-.32ZM70.39,63.37c-4.62,6-10.76,10.36-16.75,14.87C60.17,74.33,66.8,70.52,70.39,63.37Z"/><path class="cls-2" d="M74,93.82l17.61,14.82A12.11,12.11,0,0,1,84.26,112a2.14,2.14,0,0,1-1.09-.45q-10.36-6.48-20.72-13A5.81,5.81,0,0,1,61.9,98l14.18-7.08Z"/><path class="cls-2" d="M117,90a43.33,43.33,0,0,1,3.26,3.15,8.22,8.22,0,0,1,.83,2.15c.54,1.34.83,2.93,1.75,3.95,3.45,3.87,7.09,7.57,10.72,11.28a47.14,47.14,0,0,0,3.91,3.42c1.71,1.37,2.38,1.32,4.57-.59,1.46,1.64,3,3.28,4.41,5a2.4,2.4,0,0,1,.39,1.87c-.48,1.58-1.17,3.08-1.89,4.87-1.88-1.6-3.56-3-5.17-4.41q-10.06-9-20.1-18.07c-1.89-1.7-3.82-3.36-5.81-4.94-.86-.68-1-1.25-.39-2.15C114.66,93.79,115.76,92,117,90Z"/><path class="cls-2" d="M97.18,112.36,123,135.27c-2.78-.1-5.09.42-7.4-1.22-8.19-5.82-16.51-11.46-24.77-17.16a1.52,1.52,0,0,1-.3-.37Z"/><path class="cls-2" d="M179.24,184.08c1.53-.56,3.08-1.17,4.67-1.66.3-.1.82.24,1.14.49,4.56,3.63,9.13,7.26,13.65,10.93,2.89,2.35,6,3.33,9.72,2.12.43-.14,1.48.22,1.51.44.49,4.1,3.71,6.37,6.37,8.77,6.86,6.19,14,12,21.08,18l1.05.84-1.71,1.53C219.81,208.6,199.1,197,179.24,184.08Z"/><path class="cls-2" d="M153.81,259.65l-3.68.42c-.2-13.29-.4-26.38-.6-39.59h4.28Z"/><path class="cls-2" d="M97.14,58.89l1.16-1.28c3,2.86,5.83,5.71,8.81,8.43,4.77,4.36,9.64,8.61,14.45,12.93a62.28,62.28,0,0,1,4.63,4.41q10.06,11.2,20,22.52a18.12,18.12,0,0,1,1.08,1.48l-.31.32c-.38-.34-.79-.65-1.14-1-4.76-5-9.34-10.24-14.32-15-6.44-6.2-13.21-12-19.81-18.09-2.09-1.91-4.12-3.88-6.13-5.87q-3.58-3.53-7.1-7.11A20.56,20.56,0,0,1,97.14,58.89Z"/><path class="cls-2" d="M136,173.77l1.33-.25v43.19h-5.85c0-1.08,0-2.2,0-3.32a36.69,36.69,0,0,0,.16-3.77,2.19,2.19,0,0,1,1.42-2.59,1.78,1.78,0,0,0,.94-1.12,44.79,44.79,0,0,0,1-6.28C135.38,191.09,135.66,182.55,136,173.77Z"/><path class="cls-2" d="M103.7,76.39c1.08,1.19,2.13,2.4,3.23,3.56,1.89,2,3.77,4,5.72,6,.72.72,1,1.29.38,2.21-1.15,1.83-2.21,3.72-3.33,5.61-3.35-2.86-6.52-5.52-9.62-8.26a1.86,1.86,0,0,1-.49-1.62c1.06-2.56,2.26-5.07,3.41-7.59Z"/><path class="cls-2" d="M165.59,170.48l9.06-3.59,8.19,8.51a13.28,13.28,0,0,1-6.41,4.31,1.15,1.15,0,0,1-.94-.27C172.24,176.52,169,173.59,165.59,170.48Z"/><path class="cls-2" d="M127,100.62c3.19-.52,4.69-2.31,5.4-5.09l5.49,5.92-3.57,7.06a7,7,0,0,1-.9-.72C131.34,105.49,129.29,103.18,127,100.62Z"/><path class="cls-2" d="M131.18,153.11l-2.55,1.6c-3.89-6-10.55-8.83-15.28-13.84,2.39.2,4.81.35,7.21.64a2.57,2.57,0,0,1,1.4,1C125,146,128,149.47,131.18,153.11Z"/><path class="cls-2" d="M148.74,194.14l3.5,1.26c0,5.79,0,11.69,0,17.6,0,1.17-.48,2.18-2,2s-1.48-1.22-1.48-2.29C148.74,206.62,148.74,200.49,148.74,194.14Z"/><path class="cls-2" d="M155.53,186.23a26,26,0,0,1-.86,4.48c-.34.88-1.31,2.14-2,2.14a4.5,4.5,0,0,1-3.2-1.47c-1.65-2.07-1-8.14.81-10.07,1.6-1.72,3.76-1.1,4.69,1.48A17.88,17.88,0,0,1,155.53,186.23Zm-1.8.39-.13,0c0-.29.11-.63,0-.84a18.87,18.87,0,0,0-1.19-1.77c-.48.47-1.24.86-1.38,1.41a9.59,9.59,0,0,0-.18,3.21,1.59,1.59,0,0,0,.93,1.21,1.62,1.62,0,0,0,1.32-.76A12.07,12.07,0,0,0,153.73,186.62Z"/><path class="cls-2" d="M158.44,120.3a15.28,15.28,0,0,1,1.36,1q8.22,7.27,16.42,14.57c.31.27.59.56.87.85.64.65,1.3,1.47.34,2.15a2.26,2.26,0,0,1-2-.46c-3.81-3.61-7.53-7.31-11.26-11-1.76-1.74-3.5-3.49-5.21-5.27a7.71,7.71,0,0,1-.93-1.48Z"/><path class="cls-2" d="M144.59,243.65c-.11-2.17-.18-4.35-.34-6.52,0-.55-.19-1.41-.53-1.54-1.64-.65-1.26-2-1.28-3.16q0-4.23,0-8.44c0-2.85,0-2.85,3.15-2.92q-.28,11.33-.59,22.63Z"/><path class="cls-2" d="M131.68,263.16v9.5h-4.09c-.16-3.32-.32-6.5-.5-9.9Z"/><path class="cls-2" d="M61.62,96c-7.27,1.56-14.33.31-21.36-1.62,2.18-1.46,4.18-2.15,7-1.34,4.24,1.22,8.73,1.59,13.11,2.32.44.07.88.08,1.31.12C61.66,95.66,61.64,95.83,61.62,96Z"/><path class="cls-2" d="M182.26,153.18l9.87,10.13-1.2,1.91c-3.16-2.92-6.36-5.71-9.31-8.73-.54-.55-.08-2.06-.08-3.13Z"/><path class="cls-2" d="M59.77,36.38c-.23,0-.29,0-.34,0-5.86-2-5.55-1-3.68-7.59,1.44.54,2.9,1,4.29,1.65a1.39,1.39,0,0,1,.61,1.15C60.44,33.18,60.09,34.74,59.77,36.38Z"/><path class="cls-2" d="M90.8,46.5l1.88-11.71c.79,2.8,1.55,5.34,2.18,7.91C95.05,43.48,92.05,46.23,90.8,46.5Z"/><path class="cls-2" d="M62.19,59.3c-5.37-.91-6.73-2.09-6.84-5.81C59.62,53.77,60.92,54.86,62.19,59.3Z"/><path class="cls-2" d="M32.68,37.57c0-.38-.08-.66-.09-.94-.16-4.24.28-4.57,4.74-3.56,0,.47-.1,1-.16,1.46C36.7,38.29,36.7,38.29,32.68,37.57Z"/><path class="cls-2" d="M158.78,172l-9.23-10.66.23-.29,11.28,9.18Z"/><path class="cls-2" d="M95.89,68.47c2,3.22-.92,8.78-4.91,9.63C92.14,74.58,94,71.7,95.89,68.47Z"/><path class="cls-2" d="M86.93,22.48c-2.34-.63-4.24-1.17-4.91-3.77-.5-1.95-1.71-3.71-2.6-5.53C82.74,14.72,85.59,18.18,86.93,22.48Z"/><path class="cls-2" d="M60.08,52.48l-2.48-.63c-3.25-.85-3.49-1.2-3.25-4.91,1.63.38,3.22.73,4.8,1.15a1.05,1.05,0,0,1,.59.72C59.89,50,60,51.16,60.08,52.48Z"/><path class="cls-2" d="M134.49,221.91c-.22,2.89-.37,5.62-.69,8.32-.07.6-.77,1.12-1.18,1.67a5.35,5.35,0,0,1-.72-1.71c-.07-2.72,0-5.45,0-8.28Z"/><path class="cls-2" d="M169.6,162.25a31.62,31.62,0,0,1-11.76-11.46l.31-.32,11.95,11.29Z"/><path class="cls-2" d="M135.8,273.36c0-3.57,0-6.6.06-9.62,0-.41.77-.79,1.18-1.18l.77.27c0,3.18.06,6.37-.08,9.54C137.72,272.71,136.55,273,135.8,273.36Z"/><path class="cls-2" d="M61.71,49.37c3.94-.17,4.71,2.61,5.14,5.6C63,54.85,61.33,53,61.71,49.37Z"/><path class="cls-2" d="M49,32.71c.48-1.52.87-2.94,1.42-4.3a1.49,1.49,0,0,1,1.2-.57,11.45,11.45,0,0,1,2.21.44c-.42,1.87-.81,3.68-1.23,5.57Z"/><path class="cls-2" d="M70.39,40.05c-5.27-1-4.92-1.29-3.83-5.5C70.21,35.36,71.57,37.32,70.39,40.05Z"/><path class="cls-2" d="M54.24,36.71l2.86,1c2.72,1,2.72,1,2.19,4.09-1.6-.41-3.2-.78-4.77-1.25a1.13,1.13,0,0,1-.56-.9C54,38.71,54.13,37.76,54.24,36.71Z"/><path class="cls-2" d="M39.51,81a7.79,7.79,0,0,1-7.88-4.1C35.2,76.36,37.8,77.68,39.51,81Z"/><path class="cls-2" d="M64.9,63.22,62,66.4l-4-5.78C60.33,61.16,62.91,61.1,64.9,63.22Z"/><path class="cls-2" d="M51.89,40c-4-.41-4.55-1.25-3.2-4.95C52.13,34.84,52.92,36,51.89,40Z"/><path class="cls-2" d="M34.73,50.32c4.12-.52,4.65,0,4.4,4.41C35.57,55.13,36,55.09,34.73,50.32Z"/><path class="cls-2" d="M52,58.8c1.85.08,3.37.4,4.1,2.44a15.86,15.86,0,0,0,2.08,3.17C54.68,64.78,53.58,63.78,52,58.8Z"/><path class="cls-2" d="M62.42,31.91c2.92.84,3,.9,2.32,3.69-.19.88-.31,1.77-.47,2.65-2.69-.38-3.06-.86-2.62-3.25.17-.9.34-1.79.53-2.68A1.42,1.42,0,0,1,62.42,31.91Z"/><path class="cls-2" d="M43.86,26.82c-.36,1.54-.69,3-1.08,4.64l-3.38-.62C39.44,26.35,39.67,26.13,43.86,26.82Z"/><path class="cls-2" d="M33.37,30.61c.39-4,.54-4.09,4.56-3.94C38.51,30.49,37.75,31.16,33.37,30.61Z"/><path class="cls-2" d="M57.46,24.2l5.1,2.39c-.38.87-.71,1.63-1.12,2.59l-5.28-1.89C56.59,26.26,57,25.35,57.46,24.2Z"/><path class="cls-2" d="M34.56,75.3c-1.76-.29-3.47-.19-4.7-.89-1-.56-1.35-2.1-2.07-3.33C31.85,70.84,33.15,71.67,34.56,75.3Z"/><path class="cls-2" d="M67.67,18.89l-2.11,2.39-4.41-2.05C63.26,15.82,63.5,16.35,67.67,18.89Z"/><path class="cls-2" d="M38.55,37.91a21.9,21.9,0,0,0,.24-2.18c.05-3.77.63-2.95,3.54-2.27-.21,1.57-.42,3.17-.65,4.89Z"/><path class="cls-2" d="M49.33,51.93c3.69-.06,3.92.2,4.65,4.91C50.81,57,49.67,55.82,49.33,51.93Z"/><path class="cls-2" d="M29.31,54.81c-3.25.85-4.06,0-4.32-4.16,2.55-1,3-.86,3.62,1.6C28.84,53.08,29.06,53.9,29.31,54.81Z"/><path class="cls-2" d="M34.74,25.34c.59-3.87,1.2-4.37,4.88-4.09C39.27,25.08,39.07,25.25,34.74,25.34Z"/><path class="cls-2" d="M176.18,182.28c2.2-1.33,4.44-2.84,6.83-4,.88-.44,2.13-.16,3.43-.23C185,180.29,178.63,182.69,176.18,182.28Z"/><path class="cls-2" d="M16.61,51.65l3.06-.58,1,4.54C17.49,56.89,16.83,56.26,16.61,51.65Z"/><path class="cls-2" d="M40.63,24.87c.4-3.73.87-4,4.66-3.2C44.34,25.91,44.86,25.49,40.63,24.87Z"/><path class="cls-2" d="M48.77,27.58C48.34,29,47.9,30.41,47.42,32l-2.81-.26C44.81,27.12,45.3,26.64,48.77,27.58Z"/><path class="cls-2" d="M128.3,91.78c2.44,2.59,2.46,4.87.36,6.24a1.79,1.79,0,0,1-1.42.28,1.38,1.38,0,0,1-.57-1.24C127.09,95.38,127.67,93.74,128.3,91.78Z"/><path class="cls-2" d="M2.41,48.58c-1-3.74-.72-4.34,2.7-5.07C6.06,47.34,5.83,47.76,2.41,48.58Z"/><path class="cls-2" d="M142.38,106c-.5,2.51-.28,5.27-3.1,7l-3.34-2.73C139.52,110.38,141.26,108.66,142.38,106Z"/><path class="cls-2" d="M70.4,45.17c-4.4-.66-4.86-1.1-4.47-4.25l2.27.71,2.2.68Z"/><path class="cls-2" d="M41.18,76.12c-3.42.3-5.09-1.88-6.45-4.52C38,71.57,40,73,41.18,76.12Z"/><path class="cls-2" d="M244.47,217.75l-1.83,2.46c-1.23-1.62-2.35-3-3.33-4.46-.22-.33.05-1,.1-1.51.45.08,1,0,1.35.27C242,215.51,243.18,216.61,244.47,217.75Z"/><path class="cls-2" d="M68.9,58.4,66.29,61A33.41,33.41,0,0,1,64,58.43a17.61,17.61,0,0,1-1.28-2.68Z"/><path class="cls-2" d="M132.28,171.19h-1.4a1.47,1.47,0,0,1-.14-.4c-.1-3.82-.21-7.65-.27-11.47a3.67,3.67,0,0,1,.51-1.25l.45.2C131.71,162.54,132,166.81,132.28,171.19Z"/><path class="cls-2" d="M157.14,127.54c1.81,1.55,3.64,3.09,5.42,4.68.22.19.16.68.24,1-.42.06-1,.33-1.22.16q-2.58-2-5-4.18c-.23-.21,0-.88,0-1.34Z"/><path class="cls-2" d="M8.38,62.89,4.54,64c-.37-1.09-.74-2.18-1.2-3.51l3.8-.81C7.57,60.76,7.94,61.75,8.38,62.89Z"/><path class="cls-2" d="M6.18,54.4c.18,1.17.35,2.22.55,3.49l-3.54,1C2,55.45,2.32,55,6.18,54.4Z"/><path class="cls-2" d="M43.39,38.37c.23-1.63.42-3.07.65-4.71l2.79.32c-.14,1.58-.27,3.07-.43,4.79Z"/><path class="cls-2" d="M37,39.86v3.07c-3.35,1-4.42.17-3.91-3.07Z"/><path class="cls-2" d="M46.34,57.65c3.11.17,3.82.9,4.72,4.81C48.38,62.8,47.52,61.93,46.34,57.65Z"/><path class="cls-2" d="M12.07,29.65c.25-3.23.92-4,4.19-4.83C16.72,27.81,15.76,29,12.07,29.65Z"/><path class="cls-2" d="M18.06,75c-3.56,1-3.86.84-4.72-2.4C16.14,70.91,16.87,71.27,18.06,75Z"/><path class="cls-2" d="M52.62,50.08c-4.56-.29-4-.23-4.18-4l3.86.71C52.4,47.83,52.5,48.88,52.62,50.08Z"/><path class="cls-2" d="M33.75,45.16c4.56-.22,3.59-.64,4.34,2.94C33.82,48.64,33.84,48.79,33.75,45.16Z"/><path class="cls-2" d="M71.23,35,69,33.56c-2.21-1.4-2.22-1.41-.66-3.64C72.71,32.57,72.45,32.19,71.23,35Z"/><path class="cls-2" d="M50.35,15.74c1.48-3.15,1.49-3.13,5.64-1.38C54,17.34,55,17,50.35,15.74Z"/><path class="cls-2" d="M22.42,71.22c2.95-.84,3-.77,4.88,3C24.47,75.36,23.7,74.9,22.42,71.22Z"/><path class="cls-2" d="M46.19,25.34a4.69,4.69,0,0,1,.12-1c.25-.81.54-1.61.86-2.54l3.4.61C49.83,26.12,49.26,26.49,46.19,25.34Z"/><path class="cls-2" d="M126.79,89.47a4.09,4.09,0,0,1,0,1.55c-.87,2.3-1.83,4.57-2.72,6.76-1.67-1.27-1.07-4.24,2.06-8.27Z"/><path class="cls-2" d="M30.74,38a10.76,10.76,0,0,1-2.5-.35,11.46,11.46,0,0,1,.2-4c.13-.46,1.37-.63,2.3-1Z"/><path class="cls-2" d="M50,12.75c-1.49,3-1.61,3.06-5.38,2.07C45.56,11.81,46.72,11.37,50,12.75Z"/><path class="cls-2" d="M58.6,22.67c1-2.31,2.84-2.17,5.82.43l-1,1.87Z"/><path class="cls-2" d="M29.87,50.35c1.9-.46,2.92,0,3.18,1.76a14,14,0,0,0,.77,2.38c-2.43.77-2.55.72-3.22-1.47C30.34,52.16,30.12,51.29,29.87,50.35Z"/><path class="cls-2" d="M76,23.81l-1.71,2.82L71.2,24.76C72.44,21.74,73.41,21.55,76,23.81Z"/><path class="cls-2" d="M54.46,42.52A36.69,36.69,0,0,1,59,43.89c.46.19.58,1.2.85,1.84l-.42.39a36.94,36.94,0,0,1-4.73-1.26c-.47-.19-.58-1.28-.85-2Z"/><path class="cls-2" d="M23.78,65.47c-4,.46-4.28.3-4.44-2.33C23.11,61.81,23.42,62.54,23.78,65.47Z"/><path class="cls-2" d="M47.27,17.17c-.94,2.92-.94,2.92-4.8,2.43C42.54,16.59,43.31,16.18,47.27,17.17Z"/><path class="cls-2" d="M48,20.19c.87-3.21,1.26-3.35,4.79-1.78C51.84,21.08,51.71,21.13,48,20.19Z"/><path class="cls-2" d="M44.52,50.9c3.85-.36,2.46,3,3.73,4.55C45.4,55.84,44.74,55,44.52,50.9Z"/><path class="cls-2" d="M10.49,53.09c.31,1.17.61,2.35,1,3.72l-2.92.64C7.29,53.73,7.39,53.51,10.49,53.09Z"/><path class="cls-2" d="M11,40c-.36-3.61-.15-3.89,3-4.18C14.28,40,14.45,39.9,11,40Z"/><path class="cls-2" d="M25.27,76.55c2.73-.87,4.38.23,5.33,2.59C27.41,79.83,26.3,79.61,25.27,76.55Z"/><path class="cls-2" d="M23.65,38.24c.08-1,.21-1.82.22-2.66,0-1.68.76-2.45,2.5-2C27.16,36.76,26.32,38.34,23.65,38.24Z"/><path class="cls-2" d="M36.06,60.6c-3.38.09-3.38.09-4.07-3.65C35,56.4,34.72,56.23,36.06,60.6Z"/><path class="cls-2" d="M10.07,62.47c-.4-1-.79-2-1.23-3.19l3.28-.71c.4,1.2.75,2.26,1.13,3.43Z"/><path class="cls-2" d="M41.1,61c-2.9.23-2.62.38-4-4.11,2.45-.35,2.57-.28,3.26,2C40.62,59.59,40.86,60.28,41.1,61Z"/><path class="cls-2" d="M55.25,70.11c-3.07-.55-3.92-3.1-5.31-5.21C52.18,64.23,53.79,66.58,55.25,70.11Z"/><path class="cls-2" d="M55.72,23.57c-1.45,3.48-.58,3.44-4.5,2.5l1.28-3.22Z"/><path class="cls-2" d="M12.31,52.74c2.4-.94,2.46-.92,3,1.24.2.76.37,1.52.56,2.3C12.8,56.64,12.6,56.44,12.31,52.74Z"/><path class="cls-2" d="M15,30.51c-.38,3.25-.56,3.44-3.69,4C11,31.25,11.32,30.88,15,30.51Z"/><path class="cls-2" d="M41.55,16.5c-1.18,3.35-1.39,3.49-4.67,3.11C37.59,16.65,38.32,16.15,41.55,16.5Z"/><path class="cls-2" d="M194.57,162.58c.32-1,.61-2,.87-2.91s1.09-1.63,2.06-1.2c.38.18.63,1.35.46,1.93C197.11,163.27,197,163.32,194.57,162.58Z"/><path class="cls-2" d="M26,26.52c-.21-3.31.45-4.17,3.27-4.22C29.29,25.66,28.52,26.66,26,26.52Z"/><path class="cls-2" d="M45.88,61.6c-2.77-.05-3.81-1.35-3.81-4.56C45.65,56.74,44.41,60.28,45.88,61.6Z"/><path class="cls-2" d="M53.7,11.61c1.93-2.33,1.93-2.33,5.6-1C58,13,57.26,13.15,53.7,11.61Z"/><path class="cls-2" d="M11.14,45.42a8.05,8.05,0,0,1-.17-1c0-.78,0-1.57,0-2.47l2.72-.5C14.65,44.73,14.32,45.24,11.14,45.42Z"/><path class="cls-2" d="M61.21,15.92c-1.79,2.83-2.52,3-4.89,1.29C57.77,14.61,58,14.54,61.21,15.92Z"/><path class="cls-2" d="M71.79,21.25c-2.13,3-2.25,3-4.53.89C68.74,19.39,69.75,19.19,71.79,21.25Z"/><path class="cls-2" d="M18.1,58.33c3.4-.9,3.4-.9,3.93,2.31C18.58,61.71,18.5,61.66,18.1,58.33Z"/><path class="cls-2" d="M48.22,41.72c4-.07,4.25.12,3.85,2.67C49.2,45,47.71,44,48.22,41.72Z"/><path class="cls-2" d="M9.63,67,6.36,68l-1.3-2.93,3.79-.75C9.12,65.25,9.34,66,9.63,67Z"/><path class="cls-2" d="M65.05,15.33c2.16-2.06,2.72-2,5.3.63C69.05,17.84,68.93,17.82,65.05,15.33Z"/><path class="cls-2" d="M35.88,16.78C34.8,20.4,34.6,20.57,32,20.27,32.17,17.38,33,16.57,35.88,16.78Z"/><path class="cls-2" d="M26.15,40c.14.68.29,1.28.36,1.89a12.69,12.69,0,0,1,0,1.53H23.57v-3.2Z"/><path class="cls-2" d="M69.69,56.28l-2.18-4.8c.15-.08.29-.17.43-.26.31.1.64.18,1,.31C72.18,52.86,72.18,52.86,69.69,56.28Z"/><path class="cls-2" d="M59.55,13.42c1.75-2.44,2.35-2.51,5.39-.67C63.17,14.92,62.85,15,59.55,13.42Z"/><path class="cls-2" d="M27.13,57.21c3.07-.51,3.07-.51,3.83,3C28.28,60.75,27.77,60.36,27.13,57.21Z"/><path class="cls-2" d="M74.7,47.25c-2.93-1.39-2.93-1.39-2.67-4.07C75.12,43.58,76.1,45,74.7,47.25Z"/><path class="cls-2" d="M28.36,43.48c-.15-1.25-.28-2.35-.42-3.57h2.9c.1,1,.21,2,.34,3.13Z"/><path class="cls-2" d="M28.87,30.91c.27-3.4.5-3.68,3.08-3.7C31.92,31,31.55,31.44,28.87,30.91Z"/><path class="cls-2" d="M18.37,34.8c-.37,4.63.3,4.2-2.43,4.34C15.16,35.81,15.53,35.16,18.37,34.8Z"/><path class="cls-2" d="M18.42,45.77c.3,1.41.49,2.28.75,3.54-1,.15-2.13.62-2.87.3-.45-.2-.72-1.79-.41-2.44S17.35,46.32,18.42,45.77Z"/><path class="cls-2" d="M47.89,72.67c-2.82,0-3.88-1.85-4.88-3.91C45.71,68.69,46.57,69.39,47.89,72.67Z"/><path class="cls-2" d="M5.48,49.59c.5,3.07.5,3.07-2.68,3.87C2,50.6,2.2,50.3,5.48,49.59Z"/><path class="cls-2" d="M66.6,46.36c4.2.91,4.41,1.09,4.28,3.55C68.17,49.66,66.7,48.49,66.6,46.36Z"/><path class="cls-2" d="M13.41,21.23c-1.34,1.71-1,4.48-4,4.32C9.2,22.87,10.18,21.74,13.41,21.23Z"/><path class="cls-2" d="M34.41,62.72c2.64-.36,2.81-.24,4.49,3C35.88,66,35,65.38,34.41,62.72Z"/><path class="cls-2" d="M38.75,11.89c-1.61,3.18-1.61,3.18-4.43,2.94C35.06,12,36,11.39,38.75,11.89Z"/><path class="cls-2" d="M14.1,46.85c.13,1.24.25,2.29.38,3.46L12,50.88c-.24-1.19-.46-2.23-.71-3.45Z"/><path class="cls-2" d="M33.59,22c-.33,3.4-.74,3.88-3.21,3.77C30.64,22.4,31.23,21.71,33.59,22Z"/><path class="cls-2" d="M27.39,48.17c-2.88.65-2.88.65-3.4-2.47C26.69,44.69,27.24,45.09,27.39,48.17Z"/><path class="cls-2" d="M10.68,64.13c2.92-1.09,3.39-.82,3.84,2C11.22,67,11.17,67,10.68,64.13Z"/><path class="cls-2" d="M15.67,44.49c-.42-3.48-.35-3.6,2.07-3.59C18.79,44.09,18.48,44.66,15.67,44.49Z"/><path class="cls-2" d="M28.77,45.46c2.87-1,2.94-1,3.14,2.72C29.27,48.68,29.24,48.65,28.77,45.46Z"/><path class="cls-2" d="M5.26,38.59c.41,2.82.21,3.08-2.94,4C2.05,39.63,2.6,38.89,5.26,38.59Z"/><path class="cls-2" d="M64.11,27.24l3,1.58c-.44.85-.83,1.58-1.31,2.5L62.87,30Z"/><path class="cls-2" d="M17.63,28.26c0-3.42.67-4.34,2.89-4.36C20,28,20,28,17.63,28.26Z"/><path class="cls-2" d="M42.39,7.49C41.3,9.64,39.78,10.63,37.47,10,38.17,7.68,39.37,7.05,42.39,7.49Z"/><path class="cls-2" d="M7.67,51.77c-1-2.87-.8-3.26,1.87-3.7C10.79,51,10.56,51.45,7.67,51.77Z"/><path class="cls-2" d="M39.35,14.69c1.3-2.89,1.94-3.27,4.55-2.77C43.13,14.58,43,14.69,39.35,14.69Z"/><path class="cls-2" d="M15.41,77.21c3.45-.56,3.17-1.19,4.14,1.92C17.41,80.46,16.89,80.24,15.41,77.21Z"/><path class="cls-2" d="M7.22,46.57C6.9,42.64,6.9,42.64,9,42.42,10,45.79,9.75,46.29,7.22,46.57Z"/><path class="cls-2" d="M48.21,10.3c1.27-2.35,3.2-1.59,5.08-1.1C52.13,11.42,51.22,11.61,48.21,10.3Z"/><path class="cls-2" d="M64.09,43.14c-3-.43-3.16-.67-2.75-3.45C64.48,40.32,64.53,40.38,64.09,43.14Z"/><path class="cls-2" d="M40.58,50.7c2.09-.28,2.09-.28,2.56,4.1-1.4.49-2.17.17-2.21-1.45A26.32,26.32,0,0,0,40.58,50.7Z"/><path class="cls-2" d="M46.59,49c-2.91-.14-3.11-.38-2.7-3.12C46.43,45.26,46.43,45.26,46.59,49Z"/><path class="cls-2" d="M21.8,27.31c.08-3,.66-3.95,2.64-4.23C24.62,26.42,24.15,27.21,21.8,27.31Z"/><path class="cls-2" d="M72.63,30.28c-3.54-1.82-3.75-2.14-2.54-4l3.27,2Z"/><path class="cls-2" d="M77.29,24.5c1.54,1.28,1.26,2.86,1.23,4.43C75.13,28,74.86,27.17,77.29,24.5Z"/><path class="cls-2" d="M38.85,43.14c0-.71-.08-1.22-.08-1.73s0-.78.08-1.14c2.85-.35,3-.15,2.61,3.25Z"/><path class="cls-2" d="M17.78,20c-.14,3.23-.78,3.32-3.58,3.77C14.91,20.58,15.31,20.16,17.78,20Z"/><path class="cls-2" d="M21.08,17.18c.68-3.22,1.39-4,3.67-3.78C23.69,16.84,23.41,17.14,21.08,17.18Z"/><path class="cls-2" d="M49.53,68.13c-2.74-.2-3.31-2.35-4.42-4.08C47.43,63.8,47.61,64,49.53,68.13Z"/><path class="cls-2" d="M11.85,68.3c3.47-.48,3.47-.48,4.24,1.74l-3.5.8C12.34,70,12.12,69.21,11.85,68.3Z"/><path class="cls-2" d="M11,71.28l-2.26.92L7,69.45l3.06-1C10.35,69.45,10.62,70.28,11,71.28Z"/><path class="cls-2" d="M49.57,70l3.94,3.1c-1.07,1.5-1.95,1.6-2.73.51A30.05,30.05,0,0,1,49,70.48Z"/><path class="cls-2" d="M24.56,79.13A8.87,8.87,0,0,1,21.48,79c-.53-.22-.66-1.36-1-2.09C22.74,75.83,23.14,76,24.56,79.13Z"/><path class="cls-2" d="M43.47,43.5V40.71c2.79-.49,3.21,0,2.57,2.79Z"/><path class="cls-2" d="M136.73,107.68l2.42-4.58c1.06,1.54,1.1,2.73.31,3.73a9.37,9.37,0,0,1-2.27,1.55C137,108.14,136.88,107.91,136.73,107.68Z"/><path class="cls-2" d="M18.73,71.39c1.86-.31,2.24.06,3.2,3.17C19.75,75.35,19.12,74.73,18.73,71.39Z"/><path class="cls-2" d="M40,63.19c2.52,0,3.13.44,4.26,3.36C41.56,66.5,41.48,66.44,40,63.19Z"/><path class="cls-2" d="M16.28,33.18c.3-3.33.5-3.58,2.76-3.62C19.34,32.43,19.07,32.8,16.28,33.18Z"/><path class="cls-2" d="M23.57,11.66C24.43,8.87,25.2,8.3,28,8.47,27,10.17,26.27,12.1,23.57,11.66Z"/><path class="cls-2" d="M16.66,18.21c.41-2.75,1.33-3.74,3.55-3.82C19.32,17.76,19,18.13,16.66,18.21Z"/><path class="cls-2" d="M29.54,12.61c-1.08,3.2-1.53,3.61-3.87,3.53C26.47,13.16,27.14,12.55,29.54,12.61Z"/><path class="cls-2" d="M22.84,81c3.13-.4,3.49-.24,4.48,2C24.57,83.64,23.51,83.16,22.84,81Z"/><path class="cls-2" d="M27.64,28.14c-.39,3.46-.39,3.46-2.62,3.44C24.75,28.44,25.22,27.82,27.64,28.14Z"/><path class="cls-2" d="M73.72,13.42c-2,1.72-2,1.72-4.61-.62C70.75,11.4,71.23,11.46,73.72,13.42Z"/><path class="cls-2" d="M57.76,20.15c-1,2-1,2-4,1C54.36,18.59,54.74,18.48,57.76,20.15Z"/><path class="cls-2" d="M20.09,38.29c-.15-3.7.18-4.33,2.05-4.17C22.19,37.79,21.94,38.32,20.09,38.29Z"/><path class="cls-2" d="M28.53,81l5.22,1C31.17,83.87,29.3,83.48,28.53,81Z"/><path class="cls-2" d="M26.68,67.26c3-.49,3-.49,4,1.91C28,69.78,27.06,69.38,26.68,67.26Z"/><path class="cls-2" d="M64.81,48c-3.44-.85-3.44-.85-3.26-3.12C64.31,45,65,45.5,64.81,48Z"/><path class="cls-2" d="M24.2,55.39c-1.11.46-1.73.26-1.93-.8s-.45-1.89-.55-2.85c0-.33.28-.71.44-1.06.31.23.79.4.9.69C23.49,52.66,23.81,54,24.2,55.39Z"/><path class="cls-2" d="M56,66.21l4.49,1.41c-1,.83-2.15,1.95-2.31,1.83a18.71,18.71,0,0,1-2.53-2.65Z"/><path class="cls-2" d="M46,77.86l-5.07-4.8c2.68.11,4.55,1.81,5.43,4.43Z"/><path class="cls-2" d="M25,62.38c2.4-.31,2.61-.15,3.39,2.56C26.1,65.73,25.9,65.58,25,62.38Z"/><path class="cls-2" d="M77.15,30.64a2,2,0,0,1-.05.47c-.27.56-.55,1.12-.83,1.68-2.46-.88-2.83-1.69-1.65-3.75Z"/><path class="cls-2" d="M19.1,22.37c.57-3.14.57-3.14,3-3.42C21.92,21.78,21.53,22.26,19.1,22.37Z"/><path class="cls-2" d="M75.16,42c-3-.87-3.26-1.2-2.65-3.82C74.24,38.86,75.48,39.85,75.16,42Z"/><path class="cls-2" d="M244.22,221.43l7.32,8.91-.35.3L243.63,222Z"/><path class="cls-2" d="M20.86,32.09c-.14-2.91.08-3.22,2.37-3.41C23.5,31.43,23,32.15,20.86,32.09Z"/><path class="cls-2" d="M31.05,17.46c-1,3.43-1,3.43-3.28,3.28C28.59,17.76,29,17.34,31.05,17.46Z"/><path class="cls-2" d="M28.66,10.7c.94-1.84,1.83-3.48,4.53-3.09C31.83,9,31.52,11.24,28.66,10.7Z"/><path class="cls-2" d="M45.83,4.37C44.59,6,43.13,6.59,41.28,5.79,42.8,3.45,43.51,3.23,45.83,4.37Z"/><path class="cls-2" d="M70.81,18.22c1.36-1.7,1.54-1.69,4.16.24C73.57,20.24,73.32,20.22,70.81,18.22Z"/><path class="cls-2" d="M23.56,21.69c.19-2.87.79-3.55,3.05-3.59C26.19,20.69,25.67,21.33,23.56,21.69Z"/><path class="cls-2" d="M20.8,67.55c4.1-.37,4.26-.26,4.12,1.47C21.52,69.81,21.37,69.76,20.8,67.55Z"/><path class="cls-2" d="M29.58,62.36c2.43-.24,3.18.33,3.54,2.75C31,65.41,30,64.3,29.58,62.36Z"/><path class="cls-2" d="M41.51,70.77c-2.11.08-3.15-1.26-4.11-2.82C40.11,67.58,40.8,68.05,41.51,70.77Z"/><path class="cls-2" d="M16.8,61.35,15,61.7l-1.08-3.05C16.37,58,16.78,58.42,16.8,61.35Z"/><path class="cls-2" d="M37.13,3.21c-1.57,1.27-2.45,3.26-4.84,3A4.59,4.59,0,0,1,37.13,3.21Z"/><path class="cls-2" d="M73.43,33.61c2,.67,2.55,1.92,1.79,3.74C72.64,36.3,72.47,36,73.43,33.61Z"/><path class="cls-2" d="M43,10c1.39-2.3,1.51-2.35,4.36-1.72C46.15,10.3,45.71,10.48,43,10Z"/><path class="cls-2" d="M36.33,69.74c-1.94-.16-3.81-.1-4.25-2.44C34.43,66.91,34.76,67.09,36.33,69.74Z"/><path class="cls-2" d="M51,5.41c-1.29,1.81-2.91,1.74-4.69,1.24C47.69,4.76,48.31,4.59,51,5.41Z"/><path class="cls-2" d="M9.05,37.26c.31,3.39.31,3.39-1.72,3.52C6.71,38.26,7,37.67,9.05,37.26Z"/><path class="cls-2" d="M41.8,48.43c-2.56.4-1.83-1.81-2.54-3C41.92,45.12,42.29,45.57,41.8,48.43Z"/><path class="cls-2" d="M9.43,31.94c.26,3,.1,3.35-1.81,3.67C7.31,33,7.64,32.26,9.43,31.94Z"/><path class="cls-2" d="M3.31,37.36C4.16,35.73,4.08,34,5.86,33,6.16,36.42,6,36.78,3.31,37.36Z"/><path class="cls-2" d="M11.15,26.88c-1.13,1.38-.4,3.55-2.7,3.89C8.5,27.45,8.6,27.28,11.15,26.88Z"/><path class="cls-2" d="M21.81,40.35c-.91,1.09,1,3.08-1.54,3.68C19.49,40.78,19.68,40.26,21.81,40.35Z"/><path class="cls-2" d="M18.26,65.85c-2,.57-2.18.41-2.59-2.55l1.71-.42Z"/><path class="cls-2" d="M60.31,4.49c-1.78,1.9-3.44.94-5.2.47C56.73,3,58.43,4.2,60.31,4.49Z"/><path class="cls-2" d="M33.92,12.32c-1.2,1.17-1.08,3.36-3.45,3.22C30.9,13,31.81,12.1,33.92,12.32Z"/><path class="cls-2" d="M66,23.71l2.64,1.7c-.19.5-.39,1-.68,1.74L65,25.59C65.35,25,65.61,24.43,66,23.71Z"/><path class="cls-2" d="M68.72,10.67c-2.28,2.06-3.59-.28-5.21-.39C65.32,8.54,66.71,10.47,68.72,10.67Z"/><path class="cls-2" d="M56.66,6.65C55.2,8.11,54.47,8.17,52,7.19,53.26,5,54.89,6.28,56.66,6.65Z"/><path class="cls-2" d="M23.27,57.62c1.76-.24,2.15.16,2.68,2.62C24,60.65,23.9,60.61,23.27,57.62Z"/><path class="cls-2" d="M37.41,7.45c-1.51.93-1.58,3.28-3.94,2.94C34.46,7.7,35.24,7.07,37.41,7.45Z"/><path class="cls-2" d="M11.42,72.83a23.21,23.21,0,0,1,.91,2.3c.08.28-.07.83-.27.92a1,1,0,0,1-1-.24,25.09,25.09,0,0,1-1.6-2.19Z"/><path class="cls-2" d="M62.44,8.61c-1.79,1.37-3.19.11-4.77-.06C58.8,7.05,59.4,7.07,62.44,8.61Z"/><path class="cls-2" d="M61,6.44c1.81-1.15,1.81-1.15,4.26.31C64,8,63.56,7.92,61,6.44Z"/><path class="cls-2" d="M20.18,46.13c1.23-.71,1.94-.56,2,.61a4.49,4.49,0,0,1-.38,2.07C19.84,48.82,21.14,47,20.18,46.13Z"/><path class="cls-2" d="M37,5.8C38.51,3.38,39.25,3,41,3.61,39.91,4.84,39.08,6.33,37,5.8Z"/><path class="cls-2" d="M66.16,8.38c2.32-1.18,3.54.2,4.9,1.1C69.36,9.94,68,9.06,66.16,8.38Z"/><path class="cls-2" d="M45,2.18l4-.37c-1.07,1.94-2.48,1.42-3.87,1Z"/><path class="cls-2" d="M76.63,19.13c.36,1.2.62,2,1,3.42L74.6,20.74Z"/><path class="cls-2" d="M164.81,139.32l3.23-.61-.87,2.73Z"/><path class="cls-2" d="M11.94,19.45,15.16,16C14.77,18.8,14.39,19.21,11.94,19.45Z"/><path class="cls-2" d="M39.93,78l3.71.71C41.82,80.43,41.61,80.4,39.93,78Z"/><path class="cls-2" d="M50.33,4.2c1-1.67,2.19-1.71,3.49-.94,0,.19,0,.38.07.56Z"/><path class="cls-2" d="M19.47,69.4c-1.75.42-1.75.42-2.13-1.4C18.68,67.4,19.38,67.81,19.47,69.4Z"/><path class="cls-1" d="M70.39,63.37c-3.59,7.15-10.22,11-16.75,14.87C59.63,73.73,65.77,69.39,70.39,63.37Z"/><path class="cls-1" d="M153.73,186.62a12.07,12.07,0,0,1-.65,2.43,1.62,1.62,0,0,1-1.32.76,1.59,1.59,0,0,1-.93-1.21,9.59,9.59,0,0,1,.18-3.21c.14-.55.9-.94,1.38-1.41a18.87,18.87,0,0,1,1.19,1.77c.13.21,0,.55,0,.84Z"/></g></g></svg>