<?xml version="1.0" encoding="utf-8"?>
<!-- Generator: Adobe Illustrator 23.0.3, SVG Export Plug-In . SVG Version: 6.00 Build 0)  -->
<svg version="1.1" id="Layer_1" xmlns="http://www.w3.org/2000/svg" xmlns:xlink="http://www.w3.org/1999/xlink" x="0px" y="0px"
	 viewBox="0 0 595.28 595.28" style="enable-background:new 0 0 595.28 595.28;" xml:space="preserve">
<style type="text/css">
	.st0{fill:#D2162D;}
	.st1{fill:#00609E;}
	.st2{fill:#293866;}
	.st3{fill:#BD2126;}
	.st4{fill:#EF3748;}
	.st5{fill:#1F448D;}
	.st6{fill:#EF3849;}
	.st7{fill:#1E468C;}
	.st8{fill:#E12543;}
	.st9{fill:#0075BD;}
</style>
<path class="st2" d="M297.36,144.3l7.86-6.06l-0.54-9.91l8.19,5.6l9.26-3.57l-2.8,9.52l6.26,7.7l-9.92,0.28l-5.39,8.33l-3.34-9.35
	L297.36,144.3z M238.53,498.85l6.93,10.29l-12.38-0.76l-6.82-0.42l-4.21,5.38l-7.65,9.77l-3.1-12.01l-1.71-6.61l-6.42-2.34
	l-11.65-4.25l10.46-6.66l5.76-3.67l0.24-6.82l0.44-12.4l9.57,7.89l5.27,4.35l6.57-1.88l11.93-3.41l-4.55,11.54l-2.51,6.35
	L238.53,498.85z M233.46,502.27l-5.61-8.34l3.69-9.35l-9.66,2.76l-7.75-6.39L213.76,491l-8.48,5.4l9.44,3.45l2.51,9.73l6.19-7.91
	L233.46,502.27z M553.9,335.67v30.03c0,0.34-0.18,0.67-0.47,0.85c-0.11,0.07-0.28,0.1-0.49,0.1c-1.32,0-4.18-1.22-4.21-1.23
	c-1.58-0.8-3.04-1.81-4.33-3.01c-0.89-0.83-1.81-1.56-2.39-1.28c-0.16,0.08-0.35,0.26-0.55,0.45c-0.28,0.27-0.59,0.57-1.02,0.79
	c-1.13,0.57-2.28,0.19-3.21-0.11c-0.32-0.11-0.65-0.22-0.97-0.27c-1.36-0.25-2.76,0.5-4.24,1.3c-1.72,0.93-3.49,1.89-5.53,1.51
	c-1.3-0.24-2.32-0.96-3.31-1.66c-0.27-0.19-0.55-0.39-0.82-0.57c-0.45-0.29-1.99-1.19-3.01-0.57c-0.18,0.11-0.36,0.28-0.56,0.46
	c-0.19,0.18-0.39,0.36-0.6,0.52c-2.23,1.68-4.19,0.34-5.62-0.63c-0.83-0.56-1.61-1.1-2.35-1.13c-0.66-0.02-1.39,0.21-2.17,0.47
	c-1.26,0.42-2.7,0.9-4.12,0.2c-1.11-0.55-1.66-1.58-2.16-2.49c-0.34-0.63-0.66-1.23-1.11-1.57c-0.8-0.61-2.1-0.51-3.35-0.41
	c-4.92,0.39-8.42-0.64-10.49-3.04c-0.07-0.08-0.14-0.16-0.21-0.25l-0.21-0.26c-0.31-0.4-0.61-0.77-0.94-0.96
	c-0.35-0.2-0.85-0.26-1.37-0.32l-0.34-0.04c-2.77-0.37-5.4-1.65-7.39-3.62c-0.2-0.2-0.3-0.47-0.29-0.75l1.33-30.87l-0.3-0.01
	c-2.36-0.11-7.73-0.37-13.89-0.74l-0.46-0.03c-2.94-0.18-6.05-0.38-9.09-0.6l-0.26-0.02c-2.72-0.2-5.37-0.41-7.81-0.63
	c-0.58-0.05-1.15-0.11-1.7-0.16c-0.56-0.05-1.11-0.11-1.63-0.17c-0.67-0.07-1.32-0.15-1.93-0.22c-0.68-0.08-1.31-0.17-1.89-0.25
	c-0.52-0.07-0.89-0.54-0.84-1.06l0.67-7.98c0.04-0.53,0.48-0.96,1.03-0.91c0,0,3.3,0.15,8.79,0.4l5.45,0.24
	c4.89,0.21,10.78,0.46,17.24,0.72l0.41,0.02c4.46,0.18,9.18,0.37,14.03,0.55l0.96,0.04c5.27,0.2,10.66,0.39,16.03,0.57
	c22.6,0.75,38.73,1.06,47.93,0.91c0.26-0.02,0.52,0.1,0.71,0.28c0.19,0.18,0.3,0.43,0.3,0.69c0.02,1.46,0.03,2.93,0.03,4.23
	c0,2.14-0.02,3.8-0.03,4.18l2.75,18.19C553.89,335.57,553.9,335.62,553.9,335.67z M534.24,335.1l-10.99-6.53l-0.85-12.76l-9.61,8.44
	l-12.4-3.13l5.05,11.75l-6.81,10.82l12.73-1.18l8.19,9.82l2.82-12.48L534.24,335.1z M440.85,216.97l6.1-9.61l-4.46-10.48
	l-4.86-11.41l12.01,3.09l11.03,2.83l8.59-7.48l9.35-8.15l0.78,12.38l0.71,11.36l9.77,5.86l10.64,6.38l-11.53,4.56l-10.59,4.19
	l-2.55,11.1l-2.78,12.09l-7.91-9.56l-7.26-8.78l-11.34,1l-12.36,1.09L440.85,216.97z M446.01,220.25l14.55-1.29l9.31,11.26
	l3.27-14.23l13.58-5.37l-12.53-7.51l-0.91-14.58l-11.01,9.59l-14.15-3.63l5.72,13.44L446.01,220.25z M325.53,106.55l5.69,15.95
	l9.2-14.22l16.93-0.49l-10.69-13.14l4.77-16.25l-15.8,6.1l-13.98-9.56l0.92,16.92l-13.41,10.35L325.53,106.55z M380.13,150.28
	l-13.29,88.75h26.57L380.13,150.28z M484.73,502.18l1.13,7.09h-37.62l-1.81-1.89l-28.61-29.94h-0.29l-3.89,26.02l-0.09,0.6
	l-0.78,5.22h-34l-1.8-2.89l-9.71-15.59h-27.81l-1.66-3.48l-5.87-12.3l-1.6,10.58l-0.79,5.21h-36.18l-1.12-4.71l-8.48-35.72v40.42
	h-36.31V379.61l-6.01,40.48c-0.05,0.38-0.11,0.76-0.17,1.14l-0.32,2.16l-0.06,0.04c-1.8,9.25-5.54,16.94-11.19,22.93
	c-8.41,8.93-20.37,13.46-35.54,13.46c-11.84,0-21.71-2.77-29.48-8.22l-24.98,40.27l-1.8,2.89H100.3v-24.25l-20.73,22.3l-1.82,1.95
	H41.38V307.5l5.63-0.45l33.35-2.66l2.74-1.62l0.36-0.21c-12.36-1.06-22.28-5.48-29.55-13.2c-8.26-8.77-12.45-21.15-12.45-36.79
	v-91.25c0-15.64,4.19-28.02,12.45-36.79c8.41-8.93,20.37-13.46,35.54-13.46c15.18,0,27.13,4.53,35.54,13.46
	c1.57,1.67,2.99,3.47,4.27,5.4l16.37,20.66V72.17h38.08l1.41,4.15l10.24,30.13l14.53-30.77l1.66-3.51h37.29l0.28,5.83L250,96.14
	c0.97-2.09,3.08-3.55,5.54-3.55h27.57c3.38,0,6.12,2.74,6.12,6.12v127.42l66.86-110.12l1.79-2.95h49.03l0.82,5.15l21.42,133.88
	l10.84-2.36l0.07-0.01c0,0,0.01,0,0.01,0l0.57-0.12h56.92v36.92l-5.71,0.38l-56.52,3.78l0.49,3.04l1.13,7.09h-34.96l-47.33,0.64
	l15.39,1.66l5.47,0.59v5.97l76.05,11.96l4.39,0.69l0.7,4.39L484.73,502.18z M441.3,280.79h50.14v-25.07H441.3V280.79z M89.46,296.69
	c0.01,0,0.02,0,0.04,0l0.33-4.82l0.85-12.38l9.31,8.2l5.42,4.78l7.01-1.76l2.07-0.52c11.02-7.15,16.84-20.03,16.84-37.64v-91.25
	c0-28.08-14.79-44.12-41.87-44.12c-27.07,0-41.87,16.04-41.87,44.12v91.25C47.59,280.64,62.39,296.69,89.46,296.69z M109.76,306.25
	l4.15-9.59l-10.14,2.54l-7.84-6.91l-0.72,10.42l-8.99,5.32l9.69,3.9l2.28,10.2l6.71-8.01l10.4,0.98L109.76,306.25z M134.5,313.15
	h-13.19l5.77,9.21l-12.35-1.17l-7.2-0.68l-1.11,1.33v66.51H75.08v-75.21H47.51v175.48h27.58v-75.21h31.34v75.21h28.08V313.15z
	 M236.02,318.32c0-28.08-14.79-44.12-41.87-44.12c-27.07,0-41.87,16.04-41.87,44.12v91.25c0,28.08,14.79,44.12,41.87,44.12
	c27.08,0,41.87-16.04,41.87-44.12V318.32z M204.66,156.51l38.36-78.22h-27.58l-36.1,76.46V78.29h-27.58v175.48h27.58v-53.9
	l8.52-16.04l26.82,69.94h28.33L204.66,156.51z M333.25,294.68h25.32l4.76-31.84h33.84l4.76,31.84h27.83L401.69,119.2h-40.36
	L333.25,294.68z M255.54,274.2h72.95v-25.07h-45.38V98.72h-27.57V274.2z M369.39,309.19h-38.36l-18.8,124.59l-20.31-124.59h-38.36
	v175.48h24.07V360.58l20.56,124.09h26.07l19.05-125.85v125.85h26.07V309.19z M478.69,503.15l-28.08-175.48h-40.36l-28.08,175.48
	h25.32l4.76-31.84h33.84l4.76,31.84H478.69z M415.76,447.5h26.57l-13.29-88.75L415.76,447.5z M194.16,299.27
	c-8.77,0-14.29,4.76-14.29,17.3v94.76c0,12.53,5.52,17.3,14.29,17.3c8.77,0,14.29-4.76,14.29-17.3v-94.76
	C208.45,304.03,202.93,299.27,194.16,299.27z M103.75,254.32v-94.76c0-12.54-5.51-17.3-14.29-17.3c-8.77,0-14.29,4.76-14.29,17.3
	v94.76c0,12.53,5.52,17.3,14.29,17.3C98.23,271.62,103.75,266.85,103.75,254.32z"/>
</svg>
